<?xml version="1.0" encoding="UTF-8" standalone="no"?>
<svg
   width="60"
   height="60"
   viewBox="0 0 60 60"
   fill="none"
   version="1.1"
   id="svg13394"
   sodipodi:docname="EFan7.svg"
   inkscape:version="1.2.1 (9c6d41e4, 2022-07-14)"
   xmlns:inkscape="http://www.inkscape.org/namespaces/inkscape"
   xmlns:sodipodi="http://sodipodi.sourceforge.net/DTD/sodipodi-0.dtd"
   xmlns="http://www.w3.org/2000/svg"
   xmlns:svg="http://www.w3.org/2000/svg">
  <sodipodi:namedview
     id="namedview13396"
     pagecolor="#ffffff"
     bordercolor="#000000"
     borderopacity="0.25"
     inkscape:showpageshadow="2"
     inkscape:pageopacity="0.0"
     inkscape:pagecheckerboard="0"
     inkscape:deskcolor="#d1d1d1"
     showgrid="false"
     inkscape:zoom="3.9333333"
     inkscape:cx="30.127119"
     inkscape:cy="30"
     inkscape:window-width="1309"
     inkscape:window-height="456"
     inkscape:window-x="0"
     inkscape:window-y="25"
     inkscape:window-maximized="0"
     inkscape:current-layer="svg13394" />
  <rect
     x="1"
     y="1"
     width="58"
     height="58"
     rx="2"
     stroke="#4B6274"
     stroke-width="1.5"
     id="rect13295" />
  <circle
     cx="7"
     cy="7"
     r="2.25"
     fill="url(#paint0_linear_2743_1105)"
     stroke="#4B6274"
     stroke-width="1.5"
     id="circle13297"
     style="fill:#cccccc" />
  <circle
     cx="53"
     cy="7"
     r="2.25"
     fill="url(#paint1_linear_2743_1105)"
     stroke="#4B6274"
     stroke-width="1.5"
     id="circle13299" />
  <circle
     cx="53"
     cy="53"
     r="2.25"
     fill="#D9D9D9"
     stroke="#4B6274"
     stroke-width="1.5"
     id="circle13301"
     style="fill:#3c96e9;fill-opacity:1" />
  <circle
     cx="7"
     cy="53"
     r="2.25"
     fill="url(#paint2_linear_2743_1105)"
     stroke="#4B6274"
     stroke-width="1.5"
     id="circle13303" />
  <mask
     id="path-6-inside-1_2743_1105"
     fill="white">
    <path
       d="M57 30C57 44.9117 44.9117 57 30 57C15.0883 57 3 44.9117 3 30C3 15.0883 15.0883 3 30 3C44.9117 3 57 15.0883 57 30ZM8.35827 30C8.35827 41.9524 18.0476 51.6417 30 51.6417C41.9524 51.6417 51.6417 41.9524 51.6417 30C51.6417 18.0476 41.9524 8.35827 30 8.35827C18.0476 8.35827 8.35827 18.0476 8.35827 30Z"
       id="path13305" />
  </mask>
  <path
     d="M57 30C57 44.9117 44.9117 57 30 57C15.0883 57 3 44.9117 3 30C3 15.0883 15.0883 3 30 3C44.9117 3 57 15.0883 57 30ZM8.35827 30C8.35827 41.9524 18.0476 51.6417 30 51.6417C41.9524 51.6417 51.6417 41.9524 51.6417 30C51.6417 18.0476 41.9524 8.35827 30 8.35827C18.0476 8.35827 8.35827 18.0476 8.35827 30Z"
     fill="url(#paint3_linear_2743_1105)"
     stroke="#4B6274"
     stroke-width="3"
     mask="url(#path-6-inside-1_2743_1105)"
     id="path13308" />
  <mask
     id="path-7-inside-2_2743_1105"
     fill="white">
    <path
       fill-rule="evenodd"
       clip-rule="evenodd"
       d="M30.5286 31.3014C30.6067 31.1365 30.6811 30.9689 30.7517 30.7984C32.9603 25.4664 30.6144 19.4306 25.5119 17.3171C20.4095 15.2036 14.4827 17.8127 12.2741 23.1448C12.2035 23.3152 12.1375 23.4864 12.0762 23.6581L30.5286 31.3014Z"
       id="path13310" />
  </mask>
  <path
     fill-rule="evenodd"
     clip-rule="evenodd"
     d="M30.5286 31.3014C30.6067 31.1365 30.6811 30.9689 30.7517 30.7984C32.9603 25.4664 30.6144 19.4306 25.5119 17.3171C20.4095 15.2036 14.4827 17.8127 12.2741 23.1448C12.2035 23.3152 12.1375 23.4864 12.0762 23.6581L30.5286 31.3014Z"
     fill="url(#paint4_linear_2743_1105)"
     id="path13313" />
  <path
     d="M30.5286 31.3014L29.9546 32.6872L31.2734 33.2334L31.8843 31.9433L30.5286 31.3014ZM12.0762 23.6581L10.6636 23.1535L10.1834 24.4977L11.5021 25.0439L12.0762 23.6581ZM29.3658 30.2244C29.3047 30.3719 29.2404 30.5169 29.1729 30.6594L31.8843 31.9433C31.9729 31.7561 32.0574 31.5658 32.1375 31.3725L29.3658 30.2244ZM24.9379 18.7029C29.2181 20.4758 31.2815 25.5996 29.3658 30.2244L32.1375 31.3725C34.639 25.3332 32.0106 18.3853 26.0859 15.9312L24.9379 18.7029ZM13.6599 23.7188C15.5756 19.094 20.6577 16.9299 24.9379 18.7029L26.0859 15.9312C20.1613 13.4772 13.3898 16.5314 10.8883 22.5707L13.6599 23.7188ZM13.4887 24.1627C13.5418 24.0143 13.5988 23.8663 13.6599 23.7188L10.8883 22.5707C10.8082 22.7641 10.7333 22.9584 10.6636 23.1535L13.4887 24.1627ZM11.5021 25.0439L29.9546 32.6872L31.1026 29.9155L12.6502 22.2723L11.5021 25.0439Z"
     fill="#4B6274"
     mask="url(#path-7-inside-2_2743_1105)"
     id="path13315" />
  <mask
     id="path-9-inside-3_2743_1105"
     fill="white">
    <path
       fill-rule="evenodd"
       clip-rule="evenodd"
       d="M28.6986 30.5286C28.8634 30.6067 29.0311 30.6811 29.2015 30.7517C34.5336 32.9603 40.5694 30.6144 42.6829 25.5119C44.7964 20.4095 42.1872 14.4827 36.8552 12.2741C36.6847 12.2035 36.5136 12.1375 36.3418 12.0762L28.6986 30.5286Z"
       id="path13317" />
  </mask>
  <path
     fill-rule="evenodd"
     clip-rule="evenodd"
     d="M28.6986 30.5286C28.8634 30.6067 29.0311 30.6811 29.2015 30.7517C34.5336 32.9603 40.5694 30.6144 42.6829 25.5119C44.7964 20.4095 42.1872 14.4827 36.8552 12.2741C36.6847 12.2035 36.5136 12.1375 36.3418 12.0762L28.6986 30.5286Z"
     fill="url(#paint5_linear_2743_1105)"
     id="path13320" />
  <path
     d="M28.6986 30.5286L27.3128 29.9546L26.7665 31.2734L28.0566 31.8843L28.6986 30.5286ZM36.3418 12.0762L36.8465 10.6636L35.5023 10.1834L34.956 11.5021L36.3418 12.0762ZM29.7755 29.3658C29.628 29.3047 29.483 29.2404 29.3406 29.1729L28.0566 31.8843C28.2438 31.9729 28.4341 32.0574 28.6275 32.1375L29.7755 29.3658ZM41.2971 24.9379C39.5241 29.2181 34.4003 31.2815 29.7755 29.3658L28.6275 32.1375C34.6668 34.639 41.6146 32.0106 44.0687 26.0859L41.2971 24.9379ZM36.2812 13.6599C40.906 15.5756 43.07 20.6577 41.2971 24.9379L44.0687 26.0859C46.5228 20.1613 43.4685 13.3898 37.4292 10.8883L36.2812 13.6599ZM35.8372 13.4887C35.9856 13.5418 36.1336 13.5988 36.2812 13.6599L37.4292 10.8883C37.2358 10.8082 37.0415 10.7333 36.8465 10.6636L35.8372 13.4887ZM34.956 11.5021L27.3128 29.9546L30.0844 31.1026L37.7277 12.6502L34.956 11.5021Z"
     fill="#4B6274"
     mask="url(#path-9-inside-3_2743_1105)"
     id="path13322" />
  <mask
     id="path-11-inside-4_2743_1105"
     fill="white">
    <path
       fill-rule="evenodd"
       clip-rule="evenodd"
       d="M29.4714 28.6986C29.3933 28.8635 29.3189 29.0311 29.2483 29.2016C27.0397 34.5336 29.3856 40.5694 34.4881 42.6829C39.5905 44.7964 45.5173 42.1873 47.7259 36.8552C47.7965 36.6848 47.8625 36.5136 47.9238 36.3419L29.4714 28.6986Z"
       id="path13324" />
  </mask>
  <path
     fill-rule="evenodd"
     clip-rule="evenodd"
     d="M29.4714 28.6986C29.3933 28.8635 29.3189 29.0311 29.2483 29.2016C27.0397 34.5336 29.3856 40.5694 34.4881 42.6829C39.5905 44.7964 45.5173 42.1873 47.7259 36.8552C47.7965 36.6848 47.8625 36.5136 47.9238 36.3419L29.4714 28.6986Z"
     fill="url(#paint6_linear_2743_1105)"
     id="path13327" />
  <path
     d="M29.4714 28.6986L30.0454 27.3128L28.7266 26.7666L28.1157 28.0567L29.4714 28.6986ZM47.9238 36.3419L49.3364 36.8465L49.8166 35.5023L48.4979 34.9561L47.9238 36.3419ZM30.6342 29.7756C30.6953 29.6281 30.7596 29.4831 30.8271 29.3406L28.1157 28.0567C28.0271 28.2439 27.9426 28.4342 27.8625 28.6275L30.6342 29.7756ZM35.0621 41.2971C30.7819 39.5242 28.7185 34.4004 30.6342 29.7756L27.8625 28.6275C25.361 34.6668 27.9894 41.6147 33.9141 44.0688L35.0621 41.2971ZM46.3401 36.2812C44.4244 40.906 39.3423 43.0701 35.0621 41.2971L33.9141 44.0688C39.8387 46.5228 46.6102 43.4686 49.1117 37.4293L46.3401 36.2812ZM46.5113 35.8373C46.4582 35.9857 46.4012 36.1337 46.3401 36.2812L49.1117 37.4293C49.1918 37.2359 49.2667 37.0416 49.3364 36.8465L46.5113 35.8373ZM48.4979 34.9561L30.0454 27.3128L28.8974 30.0845L47.3498 37.7277L48.4979 34.9561Z"
     fill="#4B6274"
     mask="url(#path-11-inside-4_2743_1105)"
     id="path13329" />
  <mask
     id="path-13-inside-5_2743_1105"
     fill="white">
    <path
       fill-rule="evenodd"
       clip-rule="evenodd"
       d="M31.3013 29.4714C31.1365 29.3933 30.9688 29.3189 30.7984 29.2483C25.4663 27.0397 19.4305 29.3856 17.317 34.4881C15.2035 39.5905 17.8126 45.5173 23.1447 47.7259C23.3151 47.7965 23.4863 47.8625 23.658 47.9238L31.3013 29.4714Z"
       id="path13331" />
  </mask>
  <path
     fill-rule="evenodd"
     clip-rule="evenodd"
     d="M31.3013 29.4714C31.1365 29.3933 30.9688 29.3189 30.7984 29.2483C25.4663 27.0397 19.4305 29.3856 17.317 34.4881C15.2035 39.5905 17.8126 45.5173 23.1447 47.7259C23.3151 47.7965 23.4863 47.8625 23.658 47.9238L31.3013 29.4714Z"
     fill="url(#paint7_linear_2743_1105)"
     id="path13334" />
  <path
     d="M31.3013 29.4714L32.6871 30.0454L33.2334 28.7266L31.9433 28.1157L31.3013 29.4714ZM23.658 47.9238L23.1534 49.3364L24.4976 49.8166L25.0439 48.4979L23.658 47.9238ZM30.2243 30.6342C30.3719 30.6953 30.5169 30.7596 30.6593 30.8271L31.9433 28.1157C31.7561 28.0271 31.5658 27.9426 31.3724 27.8625L30.2243 30.6342ZM18.7028 35.0621C20.4757 30.7819 25.5995 28.7185 30.2243 30.6342L31.3724 27.8625C25.3331 25.361 18.3853 27.9894 15.9312 33.9141L18.7028 35.0621ZM23.7187 46.3401C19.0939 44.4244 16.9299 39.3423 18.7028 35.0621L15.9312 33.9141C13.4771 39.8387 16.5314 46.6102 22.5707 49.1117L23.7187 46.3401ZM24.1627 46.5113C24.0143 46.4582 23.8663 46.4012 23.7187 46.3401L22.5707 49.1117C22.764 49.1918 22.9583 49.2667 23.1534 49.3364L24.1627 46.5113ZM25.0439 48.4979L32.6871 30.0454L29.9155 28.8974L22.2722 47.3498L25.0439 48.4979Z"
     fill="#4B6274"
     mask="url(#path-13-inside-5_2743_1105)"
     id="path13336" />
  <circle
     cx="30"
     cy="30"
     r="6.25"
     fill="url(#paint8_linear_2743_1105)"
     stroke="#4B6274"
     stroke-width="1.5"
     id="circle13338" />
  <circle
     cx="30"
     cy="30"
     r="3"
     fill="url(#paint9_linear_2743_1105)"
     stroke="#4B6274"
     stroke-width="1.5"
     id="circle13340" />
  <defs
     id="defs13392">
    <linearGradient
       id="paint0_linear_2743_1105"
       x1="7"
       y1="4"
       x2="7"
       y2="10"
       gradientUnits="userSpaceOnUse">
      <stop
         stop-color="#3F76FF"
         id="stop13342" />
      <stop
         offset="0.4"
         stop-color="#3C96E9"
         id="stop13344" />
    </linearGradient>
    <linearGradient
       id="paint1_linear_2743_1105"
       x1="53"
       y1="4"
       x2="53"
       y2="10"
       gradientUnits="userSpaceOnUse">
      <stop
         stop-color="#3F76FF"
         id="stop13347" />
      <stop
         offset="0.4"
         stop-color="#3C96E9"
         id="stop13349" />
    </linearGradient>
    <linearGradient
       id="paint2_linear_2743_1105"
       x1="7"
       y1="50"
       x2="7"
       y2="56"
       gradientUnits="userSpaceOnUse">
      <stop
         stop-color="#3F76FF"
         id="stop13352" />
      <stop
         offset="0.4"
         stop-color="#3C96E9"
         id="stop13354" />
    </linearGradient>
    <linearGradient
       id="paint3_linear_2743_1105"
       x1="30"
       y1="3"
       x2="30"
       y2="57"
       gradientUnits="userSpaceOnUse">
      <stop
         stop-color="#3F76FF"
         id="stop13357" />
      <stop
         offset="0.4"
         stop-color="#3C96E9"
         id="stop13359" />
    </linearGradient>
    <linearGradient
       id="paint4_linear_2743_1105"
       x1="14.1684"
       y1="18.5716"
       x2="32.6459"
       y2="26.2252"
       gradientUnits="userSpaceOnUse">
      <stop
         stop-color="#3F76FF"
         id="stop13362" />
      <stop
         offset="0.4"
         stop-color="#3C96E9"
         id="stop13364" />
    </linearGradient>
    <linearGradient
       id="paint5_linear_2743_1105"
       x1="41.4284"
       y1="14.1684"
       x2="33.7747"
       y2="32.6459"
       gradientUnits="userSpaceOnUse">
      <stop
         stop-color="#3F76FF"
         id="stop13367" />
      <stop
         offset="0.4"
         stop-color="#3C96E9"
         id="stop13369" />
    </linearGradient>
    <linearGradient
       id="paint6_linear_2743_1105"
       x1="45.8316"
       y1="41.4284"
       x2="27.3541"
       y2="33.7748"
       gradientUnits="userSpaceOnUse">
      <stop
         stop-color="#3F76FF"
         id="stop13372" />
      <stop
         offset="0.4"
         stop-color="#3C96E9"
         id="stop13374" />
    </linearGradient>
    <linearGradient
       id="paint7_linear_2743_1105"
       x1="18.5715"
       y1="45.8316"
       x2="26.2252"
       y2="27.3541"
       gradientUnits="userSpaceOnUse">
      <stop
         stop-color="#3F76FF"
         id="stop13377" />
      <stop
         offset="0.4"
         stop-color="#3C96E9"
         id="stop13379" />
    </linearGradient>
    <linearGradient
       id="paint8_linear_2743_1105"
       x1="30"
       y1="23"
       x2="30"
       y2="37"
       gradientUnits="userSpaceOnUse">
      <stop
         stop-color="#3F76FF"
         id="stop13382" />
      <stop
         offset="0.4"
         stop-color="#3C96E9"
         id="stop13384" />
    </linearGradient>
    <linearGradient
       id="paint9_linear_2743_1105"
       x1="30"
       y1="27"
       x2="30"
       y2="33"
       gradientUnits="userSpaceOnUse">
      <stop
         stop-color="#3F76FF"
         id="stop13387" />
      <stop
         offset="0.4"
         stop-color="#3C96E9"
         id="stop13389" />
    </linearGradient>
  </defs>
</svg>
