<?xml version="1.0" encoding="UTF-8" standalone="no"?>
<svg
   width="60"
   height="60"
   viewBox="0 0 60 60"
   fill="none"
   version="1.1"
   id="svg12458"
   sodipodi:docname="EFan6.svg"
   inkscape:version="1.2.1 (9c6d41e4, 2022-07-14)"
   xmlns:inkscape="http://www.inkscape.org/namespaces/inkscape"
   xmlns:sodipodi="http://sodipodi.sourceforge.net/DTD/sodipodi-0.dtd"
   xmlns="http://www.w3.org/2000/svg"
   xmlns:svg="http://www.w3.org/2000/svg">
  <sodipodi:namedview
     id="namedview12460"
     pagecolor="#ffffff"
     bordercolor="#000000"
     borderopacity="0.25"
     inkscape:showpageshadow="2"
     inkscape:pageopacity="0.0"
     inkscape:pagecheckerboard="0"
     inkscape:deskcolor="#d1d1d1"
     showgrid="false"
     inkscape:zoom="3.9333333"
     inkscape:cx="30.127119"
     inkscape:cy="30"
     inkscape:window-width="1309"
     inkscape:window-height="456"
     inkscape:window-x="0"
     inkscape:window-y="25"
     inkscape:window-maximized="0"
     inkscape:current-layer="svg12458" />
  <rect
     x="1"
     y="1"
     width="58"
     height="58"
     rx="2"
     stroke="#4B6274"
     stroke-width="1.5"
     id="rect12359" />
  <circle
     cx="7"
     cy="7"
     r="2.25"
     fill="url(#paint0_linear_2743_1083)"
     stroke="#4B6274"
     stroke-width="1.5"
     id="circle12361" />
  <circle
     cx="53"
     cy="7"
     r="2.25"
     fill="url(#paint1_linear_2743_1083)"
     stroke="#4B6274"
     stroke-width="1.5"
     id="circle12363" />
  <circle
     cx="53"
     cy="53"
     r="2.25"
     fill="url(#paint2_linear_2743_1083)"
     stroke="#4B6274"
     stroke-width="1.5"
     id="circle12365"
     style="fill:#cccccc" />
  <circle
     cx="7"
     cy="53"
     r="2.25"
     fill="#D9D9D9"
     stroke="#4B6274"
     stroke-width="1.5"
     id="circle12367"
     style="fill:#3c96e9;fill-opacity:1" />
  <mask
     id="path-6-inside-1_2743_1083"
     fill="white">
    <path
       d="M57 30C57 44.9117 44.9117 57 30 57C15.0883 57 3 44.9117 3 30C3 15.0883 15.0883 3 30 3C44.9117 3 57 15.0883 57 30ZM8.35827 30C8.35827 41.9524 18.0476 51.6417 30 51.6417C41.9524 51.6417 51.6417 41.9524 51.6417 30C51.6417 18.0476 41.9524 8.35827 30 8.35827C18.0476 8.35827 8.35827 18.0476 8.35827 30Z"
       id="path12369" />
  </mask>
  <path
     d="M57 30C57 44.9117 44.9117 57 30 57C15.0883 57 3 44.9117 3 30C3 15.0883 15.0883 3 30 3C44.9117 3 57 15.0883 57 30ZM8.35827 30C8.35827 41.9524 18.0476 51.6417 30 51.6417C41.9524 51.6417 51.6417 41.9524 51.6417 30C51.6417 18.0476 41.9524 8.35827 30 8.35827C18.0476 8.35827 8.35827 18.0476 8.35827 30Z"
     fill="url(#paint3_linear_2743_1083)"
     stroke="#4B6274"
     stroke-width="3"
     mask="url(#path-6-inside-1_2743_1083)"
     id="path12372" />
  <mask
     id="path-7-inside-2_2743_1083"
     fill="white">
    <path
       fill-rule="evenodd"
       clip-rule="evenodd"
       d="M30.2646 31.3795C30.3733 31.2331 30.4789 31.0831 30.5814 30.9297C33.7878 26.131 32.6645 19.7535 28.0725 16.6852C23.4804 13.6168 17.1585 15.0196 13.952 19.8183C13.8496 19.9717 13.7515 20.1267 13.6578 20.2832L30.2646 31.3795Z"
       id="path12374" />
  </mask>
  <path
     fill-rule="evenodd"
     clip-rule="evenodd"
     d="M30.2646 31.3795C30.3733 31.2331 30.4789 31.0831 30.5814 30.9297C33.7878 26.131 32.6645 19.7535 28.0725 16.6852C23.4804 13.6168 17.1585 15.0196 13.952 19.8183C13.8496 19.9717 13.7515 20.1267 13.6578 20.2832L30.2646 31.3795Z"
     fill="url(#paint4_linear_2743_1083)"
     id="path12377" />
  <path
     d="M30.2646 31.3795L29.4312 32.6267L30.6181 33.4197L31.4689 32.2736L30.2646 31.3795ZM13.6578 20.2832L12.3708 19.5127L11.6376 20.7374L12.8244 21.5304L13.6578 20.2832ZM29.3342 30.0964C29.2455 30.2291 29.1541 30.3588 29.0602 30.4853L31.4689 32.2736C31.5924 32.1073 31.7124 31.9371 31.8286 31.7631L29.3342 30.0964ZM27.2391 17.9324C31.0912 20.5063 32.1153 25.9342 29.3342 30.0964L31.8286 31.7631C35.4603 26.3279 34.2379 19.0007 28.9058 15.438L27.2391 17.9324ZM15.1993 20.6517C17.9804 16.4895 23.387 15.3585 27.2391 17.9324L28.9058 15.438C23.5737 11.8752 16.3365 13.5497 12.7048 18.985L15.1993 20.6517ZM14.9448 21.0537C15.0257 20.9185 15.1105 20.7845 15.1993 20.6517L12.7048 18.985C12.5886 19.159 12.4772 19.335 12.3708 19.5127L14.9448 21.0537ZM12.8244 21.5304L29.4312 32.6267L31.0979 30.1323L14.4912 19.036L12.8244 21.5304Z"
     fill="#4B6274"
     mask="url(#path-7-inside-2_2743_1083)"
     id="path12379" />
  <mask
     id="path-9-inside-3_2743_1083"
     fill="white">
    <path
       fill-rule="evenodd"
       clip-rule="evenodd"
       d="M28.6205 30.2646C28.7669 30.3733 28.9169 30.4789 29.0703 30.5814C33.869 33.7878 40.2465 32.6645 43.3148 28.0725C46.3832 23.4804 44.9804 17.1585 40.1817 13.952C40.0283 13.8496 39.8733 13.7515 39.7168 13.6578L28.6205 30.2646Z"
       id="path12381" />
  </mask>
  <path
     fill-rule="evenodd"
     clip-rule="evenodd"
     d="M28.6205 30.2646C28.7669 30.3733 28.9169 30.4789 29.0703 30.5814C33.869 33.7878 40.2465 32.6645 43.3148 28.0725C46.3832 23.4804 44.9804 17.1585 40.1817 13.952C40.0283 13.8496 39.8733 13.7515 39.7168 13.6578L28.6205 30.2646Z"
     fill="url(#paint5_linear_2743_1083)"
     id="path12384" />
  <path
     d="M28.6205 30.2646L27.3733 29.4312L26.5803 30.6181L27.7264 31.4689L28.6205 30.2646ZM39.7168 13.6578L40.4873 12.3708L39.2626 11.6376L38.4696 12.8244L39.7168 13.6578ZM29.9036 29.3342C29.7709 29.2455 29.6412 29.1541 29.5147 29.0602L27.7264 31.4689C27.8927 31.5924 28.0629 31.7124 28.2369 31.8286L29.9036 29.3342ZM42.0676 27.2391C39.4937 31.0912 34.0658 32.1153 29.9036 29.3342L28.2369 31.8286C33.6721 35.4603 40.9993 34.2379 44.562 28.9058L42.0676 27.2391ZM39.3483 15.1993C43.5105 17.9804 44.6415 23.387 42.0676 27.2391L44.562 28.9058C48.1248 23.5737 46.4503 16.3365 41.015 12.7048L39.3483 15.1993ZM38.9463 14.9448C39.0815 15.0257 39.2155 15.1105 39.3483 15.1993L41.015 12.7048C40.841 12.5886 40.665 12.4772 40.4873 12.3708L38.9463 14.9448ZM38.4696 12.8244L27.3733 29.4312L29.8677 31.0979L40.964 14.4912L38.4696 12.8244Z"
     fill="#4B6274"
     mask="url(#path-9-inside-3_2743_1083)"
     id="path12386" />
  <mask
     id="path-11-inside-4_2743_1083"
     fill="white">
    <path
       fill-rule="evenodd"
       clip-rule="evenodd"
       d="M29.7354 28.6205C29.6267 28.7669 29.5211 28.9169 29.4186 29.0703C26.2122 33.869 27.3355 40.2465 31.9275 43.3148C36.5196 46.3832 42.8415 44.9804 46.048 40.1817C46.1504 40.0283 46.2485 39.8733 46.3422 39.7168L29.7354 28.6205Z"
       id="path12388" />
  </mask>
  <path
     fill-rule="evenodd"
     clip-rule="evenodd"
     d="M29.7354 28.6205C29.6267 28.7669 29.5211 28.9169 29.4186 29.0703C26.2122 33.869 27.3355 40.2465 31.9275 43.3148C36.5196 46.3832 42.8415 44.9804 46.048 40.1817C46.1504 40.0283 46.2485 39.8733 46.3422 39.7168L29.7354 28.6205Z"
     fill="url(#paint6_linear_2743_1083)"
     id="path12391" />
  <path
     d="M29.7354 28.6205L30.5688 27.3733L29.3819 26.5803L28.5311 27.7264L29.7354 28.6205ZM46.3422 39.7168L47.6292 40.4873L48.3624 39.2626L47.1756 38.4696L46.3422 39.7168ZM30.6658 29.9036C30.7545 29.7709 30.8459 29.6412 30.9398 29.5147L28.5311 27.7264C28.4076 27.8927 28.2876 28.0629 28.1714 28.2369L30.6658 29.9036ZM32.7609 42.0676C28.9088 39.4937 27.8847 34.0658 30.6658 29.9036L28.1714 28.2369C24.5397 33.6721 25.7621 40.9993 31.0942 44.562L32.7609 42.0676ZM44.8007 39.3483C42.0196 43.5105 36.613 44.6415 32.7609 42.0676L31.0942 44.562C36.4263 48.1248 43.6635 46.4503 47.2952 41.015L44.8007 39.3483ZM45.0552 38.9463C44.9743 39.0815 44.8895 39.2155 44.8007 39.3483L47.2952 41.015C47.4114 40.841 47.5228 40.665 47.6292 40.4873L45.0552 38.9463ZM47.1756 38.4696L30.5688 27.3733L28.9021 29.8677L45.5088 40.964L47.1756 38.4696Z"
     fill="#4B6274"
     mask="url(#path-11-inside-4_2743_1083)"
     id="path12393" />
  <mask
     id="path-13-inside-5_2743_1083"
     fill="white">
    <path
       fill-rule="evenodd"
       clip-rule="evenodd"
       d="M31.3795 29.7354C31.2331 29.6267 31.0831 29.521 30.9297 29.4185C26.131 26.2121 19.7535 27.3354 16.6852 31.9275C13.6168 36.5196 15.0196 42.8415 19.8183 46.0479C19.9717 46.1504 20.1267 46.2485 20.2832 46.3421L31.3795 29.7354Z"
       id="path12395" />
  </mask>
  <path
     fill-rule="evenodd"
     clip-rule="evenodd"
     d="M31.3795 29.7354C31.2331 29.6267 31.0831 29.521 30.9297 29.4185C26.131 26.2121 19.7535 27.3354 16.6852 31.9275C13.6168 36.5196 15.0196 42.8415 19.8183 46.0479C19.9717 46.1504 20.1267 46.2485 20.2832 46.3421L31.3795 29.7354Z"
     fill="url(#paint7_linear_2743_1083)"
     id="path12398" />
  <path
     d="M31.3795 29.7354L32.6267 30.5687L33.4197 29.3819L32.2736 28.531L31.3795 29.7354ZM20.2832 46.3421L19.5127 47.6291L20.7374 48.3623L21.5304 47.1755L20.2832 46.3421ZM30.0964 30.6657C30.2291 30.7544 30.3588 30.8458 30.4853 30.9398L32.2736 28.531C32.1073 28.4075 31.9371 28.2876 31.7631 28.1713L30.0964 30.6657ZM17.9324 32.7608C20.5063 28.9087 25.9342 27.8846 30.0964 30.6657L31.7631 28.1713C26.3279 24.5396 19.0007 25.7621 15.438 31.0941L17.9324 32.7608ZM20.6517 44.8007C16.4895 42.0196 15.3585 36.6129 17.9324 32.7608L15.438 31.0941C11.8752 36.4262 13.5497 43.6634 18.985 47.2951L20.6517 44.8007ZM21.0537 45.0552C20.9185 44.9742 20.7845 44.8894 20.6517 44.8007L18.985 47.2951C19.159 47.4114 19.335 47.5227 19.5127 47.6291L21.0537 45.0552ZM21.5304 47.1755L32.6267 30.5687L30.1323 28.902L19.036 45.5088L21.5304 47.1755Z"
     fill="#4B6274"
     mask="url(#path-13-inside-5_2743_1083)"
     id="path12400" />
  <circle
     cx="30"
     cy="30"
     r="6.25"
     fill="url(#paint8_linear_2743_1083)"
     stroke="#4B6274"
     stroke-width="1.5"
     id="circle12402" />
  <circle
     cx="30"
     cy="30"
     r="3"
     fill="url(#paint9_linear_2743_1083)"
     stroke="#4B6274"
     stroke-width="1.5"
     id="circle12404" />
  <defs
     id="defs12456">
    <linearGradient
       id="paint0_linear_2743_1083"
       x1="7"
       y1="4"
       x2="7"
       y2="10"
       gradientUnits="userSpaceOnUse">
      <stop
         stop-color="#3F76FF"
         id="stop12406" />
      <stop
         offset="0.4"
         stop-color="#3C96E9"
         id="stop12408" />
    </linearGradient>
    <linearGradient
       id="paint1_linear_2743_1083"
       x1="53"
       y1="4"
       x2="53"
       y2="10"
       gradientUnits="userSpaceOnUse">
      <stop
         stop-color="#3F76FF"
         id="stop12411" />
      <stop
         offset="0.4"
         stop-color="#3C96E9"
         id="stop12413" />
    </linearGradient>
    <linearGradient
       id="paint2_linear_2743_1083"
       x1="53"
       y1="50"
       x2="53"
       y2="56"
       gradientUnits="userSpaceOnUse">
      <stop
         stop-color="#3F76FF"
         id="stop12416" />
      <stop
         offset="0.4"
         stop-color="#3C96E9"
         id="stop12418" />
    </linearGradient>
    <linearGradient
       id="paint3_linear_2743_1083"
       x1="30"
       y1="3"
       x2="30"
       y2="57"
       gradientUnits="userSpaceOnUse">
      <stop
         stop-color="#3F76FF"
         id="stop12421" />
      <stop
         offset="0.4"
         stop-color="#3C96E9"
         id="stop12423" />
    </linearGradient>
    <linearGradient
       id="paint4_linear_2743_1083"
       x1="16.7021"
       y1="15.7026"
       x2="33.3315"
       y2="26.814"
       gradientUnits="userSpaceOnUse">
      <stop
         stop-color="#3F76FF"
         id="stop12426" />
      <stop
         offset="0.4"
         stop-color="#3C96E9"
         id="stop12428" />
    </linearGradient>
    <linearGradient
       id="paint5_linear_2743_1083"
       x1="44.2974"
       y1="16.7021"
       x2="33.186"
       y2="33.3315"
       gradientUnits="userSpaceOnUse">
      <stop
         stop-color="#3F76FF"
         id="stop12431" />
      <stop
         offset="0.4"
         stop-color="#3C96E9"
         id="stop12433" />
    </linearGradient>
    <linearGradient
       id="paint6_linear_2743_1083"
       x1="43.2979"
       y1="44.2974"
       x2="26.6685"
       y2="33.186"
       gradientUnits="userSpaceOnUse">
      <stop
         stop-color="#3F76FF"
         id="stop12436" />
      <stop
         offset="0.4"
         stop-color="#3C96E9"
         id="stop12438" />
    </linearGradient>
    <linearGradient
       id="paint7_linear_2743_1083"
       x1="15.7026"
       y1="43.2978"
       x2="26.814"
       y2="26.6684"
       gradientUnits="userSpaceOnUse">
      <stop
         stop-color="#3F76FF"
         id="stop12441" />
      <stop
         offset="0.4"
         stop-color="#3C96E9"
         id="stop12443" />
    </linearGradient>
    <linearGradient
       id="paint8_linear_2743_1083"
       x1="30"
       y1="23"
       x2="30"
       y2="37"
       gradientUnits="userSpaceOnUse">
      <stop
         stop-color="#3F76FF"
         id="stop12446" />
      <stop
         offset="0.4"
         stop-color="#3C96E9"
         id="stop12448" />
    </linearGradient>
    <linearGradient
       id="paint9_linear_2743_1083"
       x1="30"
       y1="27"
       x2="30"
       y2="33"
       gradientUnits="userSpaceOnUse">
      <stop
         stop-color="#3F76FF"
         id="stop12451" />
      <stop
         offset="0.4"
         stop-color="#3C96E9"
         id="stop12453" />
    </linearGradient>
  </defs>
</svg>
