<?xml version="1.0" encoding="UTF-8" standalone="no"?>
<svg
   width="60"
   height="60"
   viewBox="0 0 60 60"
   fill="none"
   version="1.1"
   id="svg14848"
   sodipodi:docname="EFan8.svg"
   inkscape:version="1.2.1 (9c6d41e4, 2022-07-14)"
   xmlns:inkscape="http://www.inkscape.org/namespaces/inkscape"
   xmlns:sodipodi="http://sodipodi.sourceforge.net/DTD/sodipodi-0.dtd"
   xmlns="http://www.w3.org/2000/svg"
   xmlns:svg="http://www.w3.org/2000/svg">
  <sodipodi:namedview
     id="namedview14850"
     pagecolor="#ffffff"
     bordercolor="#000000"
     borderopacity="0.25"
     inkscape:showpageshadow="2"
     inkscape:pageopacity="0.0"
     inkscape:pagecheckerboard="0"
     inkscape:deskcolor="#d1d1d1"
     showgrid="false"
     inkscape:zoom="3.9333333"
     inkscape:cx="30.127119"
     inkscape:cy="30"
     inkscape:window-width="1309"
     inkscape:window-height="456"
     inkscape:window-x="0"
     inkscape:window-y="25"
     inkscape:window-maximized="0"
     inkscape:current-layer="svg14848" />
  <rect
     x="1"
     y="1"
     width="58"
     height="58"
     rx="2"
     stroke="#4B6274"
     stroke-width="1.5"
     id="rect14749" />
  <circle
     cx="7"
     cy="7"
     r="2.25"
     fill="url(#paint0_linear_2743_1127)"
     stroke="#4B6274"
     stroke-width="1.5"
     id="circle14751" />
  <circle
     cx="53"
     cy="7"
     r="2.25"
     fill="#D9D9D9"
     stroke="#4B6274"
     stroke-width="1.5"
     id="circle14753"
     style="fill:#3c96e9;fill-opacity:1" />
  <circle
     cx="53"
     cy="53"
     r="2.25"
     fill="url(#paint1_linear_2743_1127)"
     stroke="#4B6274"
     stroke-width="1.5"
     id="circle14755"
     style="fill:#cccccc" />
  <circle
     cx="7"
     cy="53"
     r="2.25"
     fill="url(#paint2_linear_2743_1127)"
     stroke="#4B6274"
     stroke-width="1.5"
     id="circle14757" />
  <mask
     id="path-6-inside-1_2743_1127"
     fill="white">
    <path
       d="M57 30C57 44.9117 44.9117 57 30 57C15.0883 57 3 44.9117 3 30C3 15.0883 15.0883 3 30 3C44.9117 3 57 15.0883 57 30ZM8.35827 30C8.35827 41.9524 18.0476 51.6417 30 51.6417C41.9524 51.6417 51.6417 41.9524 51.6417 30C51.6417 18.0476 41.9524 8.35827 30 8.35827C18.0476 8.35827 8.35827 18.0476 8.35827 30Z"
       id="path14759" />
  </mask>
  <path
     d="M57 30C57 44.9117 44.9117 57 30 57C15.0883 57 3 44.9117 3 30C3 15.0883 15.0883 3 30 3C44.9117 3 57 15.0883 57 30ZM8.35827 30C8.35827 41.9524 18.0476 51.6417 30 51.6417C41.9524 51.6417 51.6417 41.9524 51.6417 30C51.6417 18.0476 41.9524 8.35827 30 8.35827C18.0476 8.35827 8.35827 18.0476 8.35827 30Z"
     fill="url(#paint3_linear_2743_1127)"
     stroke="#4B6274"
     stroke-width="3"
     mask="url(#path-6-inside-1_2743_1127)"
     id="path14762" />
  <mask
     id="path-7-inside-2_2743_1127"
     fill="white">
    <path
       fill-rule="evenodd"
       clip-rule="evenodd"
       d="M30.7723 31.1733C30.8167 30.9964 30.8569 30.8174 30.8929 30.6365C32.0189 24.976 28.5405 19.5138 23.1238 18.4364C17.707 17.3589 12.4032 21.0742 11.2772 26.7347C11.2412 26.9156 11.2099 27.0964 11.1833 27.2768L30.7723 31.1733Z"
       id="path14764" />
  </mask>
  <path
     fill-rule="evenodd"
     clip-rule="evenodd"
     d="M30.7723 31.1733C30.8167 30.9964 30.8569 30.8174 30.8929 30.6365C32.0189 24.976 28.5405 19.5138 23.1238 18.4364C17.707 17.3589 12.4032 21.0742 11.2772 26.7347C11.2412 26.9156 11.2099 27.0964 11.1833 27.2768L30.7723 31.1733Z"
     fill="url(#paint4_linear_2743_1127)"
     id="path14767" />
  <path
     d="M30.7723 31.1733L30.4796 32.6444L31.8796 32.9229L32.2271 31.5384L30.7723 31.1733ZM11.1833 27.2768L9.6994 27.0574L9.49065 28.4695L10.8906 28.7479L11.1833 27.2768ZM29.4217 30.3438C29.3906 30.5005 29.3558 30.6552 29.3174 30.8081L32.2271 31.5384C32.2776 31.3375 32.3233 31.1344 32.3641 30.9291L29.4217 30.3438ZM22.8311 19.9076C27.375 20.8114 30.3983 25.4342 29.4217 30.3438L32.3641 30.9291C33.6394 24.5178 29.706 18.2163 23.4164 16.9652L22.8311 19.9076ZM12.7484 27.0273C13.725 22.1176 18.2873 19.0037 22.8311 19.9076L23.4164 16.9652C17.1268 15.7141 11.0813 20.0308 9.80604 26.442L12.7484 27.0273ZM12.6671 27.4961C12.6902 27.3402 12.7172 27.1839 12.7484 27.0273L9.80604 26.442C9.76521 26.6473 9.72969 26.8525 9.6994 27.0574L12.6671 27.4961ZM10.8906 28.7479L30.4796 32.6444L31.0649 29.7021L11.4759 25.8056L10.8906 28.7479Z"
     fill="#4B6274"
     mask="url(#path-7-inside-2_2743_1127)"
     id="path14769" />
  <mask
     id="path-9-inside-3_2743_1127"
     fill="white">
    <path
       fill-rule="evenodd"
       clip-rule="evenodd"
       d="M28.8268 30.7723C29.0037 30.8167 29.1826 30.857 29.3636 30.893C35.0241 32.0189 40.4862 28.5406 41.5637 23.1238C42.6411 17.7071 38.9259 12.4032 33.2654 11.2773C33.0844 11.2413 32.9037 11.21 32.7233 11.1833L28.8268 30.7723Z"
       id="path14771" />
  </mask>
  <path
     fill-rule="evenodd"
     clip-rule="evenodd"
     d="M28.8268 30.7723C29.0037 30.8167 29.1826 30.857 29.3636 30.893C35.0241 32.0189 40.4862 28.5406 41.5637 23.1238C42.6411 17.7071 38.9259 12.4032 33.2654 11.2773C33.0844 11.2413 32.9037 11.21 32.7233 11.1833L28.8268 30.7723Z"
     fill="url(#paint5_linear_2743_1127)"
     id="path14774" />
  <path
     d="M28.8268 30.7723L27.3556 30.4797L27.0771 31.8797L28.4616 32.2272L28.8268 30.7723ZM32.7233 11.1833L32.9427 9.69946L31.5306 9.49071L31.2521 10.8907L32.7233 11.1833ZM29.6562 29.4218C29.4996 29.3907 29.3448 29.3558 29.192 29.3175L28.4616 32.2272C28.6625 32.2776 28.8657 32.3233 29.0709 32.3642L29.6562 29.4218ZM40.0925 22.8312C39.1887 27.3751 34.5659 30.3984 29.6562 29.4218L29.0709 32.3642C35.4822 33.6395 41.7838 29.7061 43.0349 23.4165L40.0925 22.8312ZM32.9727 12.7485C37.8824 13.7251 40.9963 18.2873 40.0925 22.8312L43.0349 23.4165C44.2859 17.1269 39.9693 11.0814 33.558 9.8061L32.9727 12.7485ZM32.5039 12.6672C32.6598 12.6903 32.8161 12.7173 32.9727 12.7485L33.558 9.8061C33.3528 9.76527 33.1476 9.72975 32.9427 9.69946L32.5039 12.6672ZM31.2521 10.8907L27.3556 30.4797L30.298 31.065L34.1945 11.476L31.2521 10.8907Z"
     fill="#4B6274"
     mask="url(#path-9-inside-3_2743_1127)"
     id="path14776" />
  <mask
     id="path-11-inside-4_2743_1127"
     fill="white">
    <path
       fill-rule="evenodd"
       clip-rule="evenodd"
       d="M29.2276 28.8268C29.1832 29.0037 29.1429 29.1826 29.107 29.3636C27.981 35.0241 31.4594 40.4862 36.8761 41.5637C42.2928 42.6411 47.5967 38.9259 48.7227 33.2654C48.7586 33.0844 48.7899 32.9037 48.8166 32.7233L29.2276 28.8268Z"
       id="path14778" />
  </mask>
  <path
     fill-rule="evenodd"
     clip-rule="evenodd"
     d="M29.2276 28.8268C29.1832 29.0037 29.1429 29.1826 29.107 29.3636C27.981 35.0241 31.4594 40.4862 36.8761 41.5637C42.2928 42.6411 47.5967 38.9259 48.7227 33.2654C48.7586 33.0844 48.7899 32.9037 48.8166 32.7233L29.2276 28.8268Z"
     fill="url(#paint6_linear_2743_1127)"
     id="path14781" />
  <path
     d="M29.2276 28.8268L29.5202 27.3556L28.1202 27.0771L27.7727 28.4616L29.2276 28.8268ZM48.8166 32.7233L50.3005 32.9427L50.5092 31.5306L49.1092 31.2521L48.8166 32.7233ZM30.5781 29.6562C30.6093 29.4996 30.6441 29.3448 30.6825 29.192L27.7727 28.4616C27.7223 28.6625 27.6766 28.8657 27.6358 29.0709L30.5781 29.6562ZM37.1687 40.0925C32.6249 39.1887 29.6015 34.5659 30.5781 29.6562L27.6358 29.0709C26.3605 35.4822 30.2939 41.7838 36.5835 43.0349L37.1687 40.0925ZM47.2515 32.9727C46.2749 37.8824 41.7126 40.9963 37.1687 40.0925L36.5835 43.0349C42.8731 44.2859 48.9185 39.9693 50.1938 33.558L47.2515 32.9727ZM47.3327 32.5039C47.3097 32.6598 47.2826 32.8161 47.2515 32.9727L50.1938 33.558C50.2347 33.3528 50.2702 33.1476 50.3005 32.9427L47.3327 32.5039ZM49.1092 31.2521L29.5202 27.3556L28.935 30.298L48.524 34.1945L49.1092 31.2521Z"
     fill="#4B6274"
     mask="url(#path-11-inside-4_2743_1127)"
     id="path14783" />
  <mask
     id="path-13-inside-5_2743_1127"
     fill="white">
    <path
       fill-rule="evenodd"
       clip-rule="evenodd"
       d="M31.1732 29.2277C30.9963 29.1833 30.8174 29.143 30.6364 29.107C24.9759 27.9811 19.5138 31.4594 18.4363 36.8762C17.3589 42.2929 21.0741 47.5968 26.7346 48.7227C26.9156 48.7587 27.0963 48.79 27.2767 48.8167L31.1732 29.2277Z"
       id="path14785" />
  </mask>
  <path
     fill-rule="evenodd"
     clip-rule="evenodd"
     d="M31.1732 29.2277C30.9963 29.1833 30.8174 29.143 30.6364 29.107C24.9759 27.9811 19.5138 31.4594 18.4363 36.8762C17.3589 42.2929 21.0741 47.5968 26.7346 48.7227C26.9156 48.7587 27.0963 48.79 27.2767 48.8167L31.1732 29.2277Z"
     fill="url(#paint7_linear_2743_1127)"
     id="path14788" />
  <path
     d="M31.1732 29.2277L32.6444 29.5203L32.9229 28.1203L31.5384 27.7728L31.1732 29.2277ZM27.2767 48.8167L27.0573 50.3005L28.4694 50.5093L28.7479 49.1093L27.2767 48.8167ZM30.3438 30.5782C30.5004 30.6093 30.6552 30.6442 30.808 30.6825L31.5384 27.7728C31.3375 27.7224 31.1343 27.6767 30.9291 27.6358L30.3438 30.5782ZM19.9075 37.1688C20.8113 32.6249 25.4341 29.6016 30.3438 30.5782L30.9291 27.6358C24.5178 26.3605 18.2162 30.2939 16.9651 36.5835L19.9075 37.1688ZM27.0273 47.2515C22.1176 46.2749 19.0037 41.7127 19.9075 37.1688L16.9651 36.5835C15.7141 42.8731 20.0307 48.9186 26.442 50.1939L27.0273 47.2515ZM27.4961 47.3328C27.3402 47.3097 27.1839 47.2827 27.0273 47.2515L26.442 50.1939C26.6472 50.2347 26.8524 50.2702 27.0573 50.3005L27.4961 47.3328ZM28.7479 49.1093L32.6444 29.5203L29.702 28.935L25.8055 48.524L28.7479 49.1093Z"
     fill="#4B6274"
     mask="url(#path-13-inside-5_2743_1127)"
     id="path14790" />
  <circle
     cx="30"
     cy="30"
     r="6.25"
     fill="url(#paint8_linear_2743_1127)"
     stroke="#4B6274"
     stroke-width="1.5"
     id="circle14792" />
  <circle
     cx="30"
     cy="30"
     r="3"
     fill="url(#paint9_linear_2743_1127)"
     stroke="#4B6274"
     stroke-width="1.5"
     id="circle14794" />
  <defs
     id="defs14846">
    <linearGradient
       id="paint0_linear_2743_1127"
       x1="7"
       y1="4"
       x2="7"
       y2="10"
       gradientUnits="userSpaceOnUse">
      <stop
         stop-color="#3F76FF"
         id="stop14796" />
      <stop
         offset="0.4"
         stop-color="#3C96E9"
         id="stop14798" />
    </linearGradient>
    <linearGradient
       id="paint1_linear_2743_1127"
       x1="53"
       y1="50"
       x2="53"
       y2="56"
       gradientUnits="userSpaceOnUse">
      <stop
         stop-color="#3F76FF"
         id="stop14801" />
      <stop
         offset="0.4"
         stop-color="#3C96E9"
         id="stop14803" />
    </linearGradient>
    <linearGradient
       id="paint2_linear_2743_1127"
       x1="7"
       y1="50"
       x2="7"
       y2="56"
       gradientUnits="userSpaceOnUse">
      <stop
         stop-color="#3F76FF"
         id="stop14806" />
      <stop
         offset="0.4"
         stop-color="#3C96E9"
         id="stop14808" />
    </linearGradient>
    <linearGradient
       id="paint3_linear_2743_1127"
       x1="30"
       y1="3"
       x2="30"
       y2="57"
       gradientUnits="userSpaceOnUse">
      <stop
         stop-color="#3F76FF"
         id="stop14811" />
      <stop
         offset="0.4"
         stop-color="#3C96E9"
         id="stop14813" />
    </linearGradient>
    <linearGradient
       id="paint4_linear_2743_1127"
       x1="12.2429"
       y1="21.8798"
       x2="31.8586"
       y2="25.7816"
       gradientUnits="userSpaceOnUse">
      <stop
         stop-color="#3F76FF"
         id="stop14816" />
      <stop
         offset="0.4"
         stop-color="#3C96E9"
         id="stop14818" />
    </linearGradient>
    <linearGradient
       id="paint5_linear_2743_1127"
       x1="38.1203"
       y1="12.243"
       x2="34.2185"
       y2="31.8587"
       gradientUnits="userSpaceOnUse">
      <stop
         stop-color="#3F76FF"
         id="stop14821" />
      <stop
         offset="0.4"
         stop-color="#3C96E9"
         id="stop14823" />
    </linearGradient>
    <linearGradient
       id="paint6_linear_2743_1127"
       x1="47.757"
       y1="38.1203"
       x2="28.1413"
       y2="34.2185"
       gradientUnits="userSpaceOnUse">
      <stop
         stop-color="#3F76FF"
         id="stop14826" />
      <stop
         offset="0.4"
         stop-color="#3C96E9"
         id="stop14828" />
    </linearGradient>
    <linearGradient
       id="paint7_linear_2743_1127"
       x1="21.8797"
       y1="47.757"
       x2="25.7815"
       y2="28.1413"
       gradientUnits="userSpaceOnUse">
      <stop
         stop-color="#3F76FF"
         id="stop14831" />
      <stop
         offset="0.4"
         stop-color="#3C96E9"
         id="stop14833" />
    </linearGradient>
    <linearGradient
       id="paint8_linear_2743_1127"
       x1="30"
       y1="23"
       x2="30"
       y2="37"
       gradientUnits="userSpaceOnUse">
      <stop
         stop-color="#3F76FF"
         id="stop14836" />
      <stop
         offset="0.4"
         stop-color="#3C96E9"
         id="stop14838" />
    </linearGradient>
    <linearGradient
       id="paint9_linear_2743_1127"
       x1="30"
       y1="27"
       x2="30"
       y2="33"
       gradientUnits="userSpaceOnUse">
      <stop
         stop-color="#3F76FF"
         id="stop14841" />
      <stop
         offset="0.4"
         stop-color="#3C96E9"
         id="stop14843" />
    </linearGradient>
  </defs>
</svg>
