<svg width="60" height="60" viewBox="0 0 60 60" fill="none" xmlns="http://www.w3.org/2000/svg">
<rect x="1" y="1" width="58" height="58" rx="2" stroke="#4B6274" stroke-width="1.5"/>
<circle cx="7" cy="7" r="2.25" fill="url(#paint0_linear_2743_995)" stroke="#4B6274" stroke-width="1.5"/>
<circle cx="53" cy="7" r="2.25" fill="url(#paint1_linear_2743_995)" stroke="#4B6274" stroke-width="1.5"/>
<circle cx="53" cy="53" r="2.25" fill="url(#paint2_linear_2743_995)" stroke="#4B6274" stroke-width="1.5"/>
<circle cx="7" cy="53" r="2.25" fill="#D9D9D9" stroke="#4B6274" stroke-width="1.5"/>
<mask id="path-6-inside-1_2743_995" fill="white">
<path d="M57 30C57 44.9117 44.9117 57 30 57C15.0883 57 3 44.9117 3 30C3 15.0883 15.0883 3 30 3C44.9117 3 57 15.0883 57 30ZM8.35827 30C8.35827 41.9524 18.0476 51.6417 30 51.6417C41.9524 51.6417 51.6417 41.9524 51.6417 30C51.6417 18.0476 41.9524 8.35827 30 8.35827C18.0476 8.35827 8.35827 18.0476 8.35827 30Z"/>
</mask>
<path d="M57 30C57 44.9117 44.9117 57 30 57C15.0883 57 3 44.9117 3 30C3 15.0883 15.0883 3 30 3C44.9117 3 57 15.0883 57 30ZM8.35827 30C8.35827 41.9524 18.0476 51.6417 30 51.6417C41.9524 51.6417 51.6417 41.9524 51.6417 30C51.6417 18.0476 41.9524 8.35827 30 8.35827C18.0476 8.35827 8.35827 18.0476 8.35827 30Z" fill="url(#paint3_linear_2743_995)" stroke="#4B6274" stroke-width="3" mask="url(#path-6-inside-1_2743_995)"/>
<mask id="path-7-inside-2_2743_995" fill="white">
<path fill-rule="evenodd" clip-rule="evenodd" d="M29.2116 31.1625C29.392 31.1359 29.5727 31.1046 29.7537 31.0686C35.4142 29.9426 39.1294 24.6388 38.052 19.222C36.9745 13.8053 31.5124 10.3269 25.8519 11.4529C25.6709 11.4889 25.492 11.5291 25.3151 11.5735L29.2116 31.1625Z"/>
</mask>
<path fill-rule="evenodd" clip-rule="evenodd" d="M29.2116 31.1625C29.392 31.1359 29.5727 31.1046 29.7537 31.0686C35.4142 29.9426 39.1294 24.6388 38.052 19.222C36.9745 13.8053 31.5124 10.3269 25.8519 11.4529C25.6709 11.4889 25.492 11.5291 25.3151 11.5735L29.2116 31.1625Z" fill="url(#paint4_linear_2743_995)"/>
<path d="M29.2116 31.1625L27.7404 31.4552L28.0189 32.8552L29.431 32.6464L29.2116 31.1625ZM25.3151 11.5735L24.9499 10.1187L23.5654 10.4662L23.8439 11.8662L25.3151 11.5735ZM29.461 29.5974C29.3044 29.6286 29.1481 29.6556 28.9922 29.6787L29.431 32.6464C29.6359 32.6161 29.841 32.5806 30.0463 32.5398L29.461 29.5974ZM36.5808 19.5147C37.4846 24.0585 34.3707 28.6208 29.461 29.5974L30.0463 32.5398C36.4576 31.2645 40.7742 25.219 39.5232 18.9294L36.5808 19.5147ZM26.1445 12.9241C31.0542 11.9475 35.677 14.9708 36.5808 19.5147L39.5232 18.9294C38.2721 12.6398 31.9705 8.70642 25.5592 9.9817L26.1445 12.9241ZM25.6803 13.0284C25.8331 12.99 25.9879 12.9552 26.1445 12.9241L25.5592 9.9817C25.354 10.0225 25.1508 10.0682 24.9499 10.1187L25.6803 13.0284ZM23.8439 11.8662L27.7404 31.4552L30.6828 30.8699L26.7863 11.2809L23.8439 11.8662Z" fill="#4B6274" mask="url(#path-7-inside-2_2743_995)"/>
<mask id="path-9-inside-3_2743_995" fill="white">
<path fill-rule="evenodd" clip-rule="evenodd" d="M28.8375 29.2117C28.8641 29.3921 28.8954 29.5728 28.9314 29.7537C30.0574 35.4142 35.3612 39.1295 40.778 38.052C46.1947 36.9746 49.6731 31.5124 48.5471 25.8519C48.5111 25.671 48.4709 25.492 48.4265 25.3152L28.8375 29.2117Z"/>
</mask>
<path fill-rule="evenodd" clip-rule="evenodd" d="M28.8375 29.2117C28.8641 29.3921 28.8954 29.5728 28.9314 29.7537C30.0574 35.4142 35.3612 39.1295 40.778 38.052C46.1947 36.9746 49.6731 31.5124 48.5471 25.8519C48.5111 25.671 48.4709 25.492 48.4265 25.3152L28.8375 29.2117Z" fill="url(#paint5_linear_2743_995)"/>
<path d="M28.8375 29.2117L28.5448 27.7405L27.1448 28.0189L27.3536 29.431L28.8375 29.2117ZM48.4265 25.3152L49.8813 24.95L49.5338 23.5655L48.1338 23.844L48.4265 25.3152ZM30.4026 29.4611C30.3714 29.3045 30.3444 29.1482 30.3213 28.9923L27.3536 29.431C27.3839 29.6359 27.4194 29.8411 27.4602 30.0464L30.4026 29.4611ZM40.4853 36.5809C35.9415 37.4847 31.3792 34.3708 30.4026 29.4611L27.4602 30.0464C28.7355 36.4577 34.781 40.7743 41.0706 39.5232L40.4853 36.5809ZM47.0759 26.1446C48.0525 31.0542 45.0292 35.677 40.4853 36.5809L41.0706 39.5232C47.3602 38.2721 51.2936 31.9706 50.0183 25.5593L47.0759 26.1446ZM46.9716 25.6803C47.01 25.8332 47.0448 25.9879 47.0759 26.1446L50.0183 25.5593C49.9775 25.354 49.9318 25.1509 49.8813 24.95L46.9716 25.6803ZM48.1338 23.844L28.5448 27.7405L29.1301 30.6828L48.7191 26.7863L48.1338 23.844Z" fill="#4B6274" mask="url(#path-9-inside-3_2743_995)"/>
<mask id="path-11-inside-4_2743_995" fill="white">
<path fill-rule="evenodd" clip-rule="evenodd" d="M30.7883 28.8375C30.6079 28.8641 30.4271 28.8954 30.2462 28.9314C24.5857 30.0574 20.8704 35.3612 21.9479 40.778C23.0254 46.1947 28.4875 49.6731 34.148 48.5471C34.329 48.5111 34.5079 48.4709 34.6848 48.4265L30.7883 28.8375Z"/>
</mask>
<path fill-rule="evenodd" clip-rule="evenodd" d="M30.7883 28.8375C30.6079 28.8641 30.4271 28.8954 30.2462 28.9314C24.5857 30.0574 20.8704 35.3612 21.9479 40.778C23.0254 46.1947 28.4875 49.6731 34.148 48.5471C34.329 48.5111 34.5079 48.4709 34.6848 48.4265L30.7883 28.8375Z" fill="url(#paint6_linear_2743_995)"/>
<path d="M30.7883 28.8375L32.2595 28.5448L31.981 27.1448L30.5689 27.3536L30.7883 28.8375ZM34.6848 48.4265L35.05 49.8813L36.4344 49.5338L36.156 48.1338L34.6848 48.4265ZM30.5388 30.4026C30.6955 30.3714 30.8518 30.3444 31.0077 30.3213L30.5689 27.3536C30.364 27.3839 30.1588 27.4194 29.9536 27.4602L30.5388 30.4026ZM23.4191 40.4853C22.5152 35.9415 25.6292 31.3792 30.5388 30.4026L29.9536 27.4602C23.5423 28.7355 19.2256 34.781 20.4767 41.0706L23.4191 40.4853ZM33.8554 47.0759C28.9457 48.0525 24.3229 45.0292 23.4191 40.4853L20.4767 41.0706C21.7278 47.3602 28.0294 51.2936 34.4406 50.0183L33.8554 47.0759ZM34.3196 46.9716C34.1668 47.01 34.012 47.0448 33.8554 47.0759L34.4406 50.0183C34.6459 49.9775 34.8491 49.9318 35.05 49.8813L34.3196 46.9716ZM36.156 48.1338L32.2595 28.5448L29.3171 29.1301L33.2136 48.7191L36.156 48.1338Z" fill="#4B6274" mask="url(#path-11-inside-4_2743_995)"/>
<mask id="path-13-inside-5_2743_995" fill="white">
<path fill-rule="evenodd" clip-rule="evenodd" d="M31.1625 30.7883C31.1358 30.6079 31.1045 30.4272 31.0685 30.2463C29.9426 24.5858 24.6387 20.8705 19.222 21.948C13.8053 23.0254 10.3269 28.4876 11.4528 34.1481C11.4888 34.329 11.5291 34.508 11.5735 34.6848L31.1625 30.7883Z"/>
</mask>
<path fill-rule="evenodd" clip-rule="evenodd" d="M31.1625 30.7883C31.1358 30.6079 31.1045 30.4272 31.0685 30.2463C29.9426 24.5858 24.6387 20.8705 19.222 21.948C13.8053 23.0254 10.3269 28.4876 11.4528 34.1481C11.4888 34.329 11.5291 34.508 11.5735 34.6848L31.1625 30.7883Z" fill="url(#paint7_linear_2743_995)"/>
<path d="M31.1625 30.7883L31.4551 32.2595L32.8551 31.9811L32.6463 30.569L31.1625 30.7883ZM11.5735 34.6848L10.1186 35.05L10.4661 36.4345L11.8661 36.156L11.5735 34.6848ZM29.5973 30.5389C29.6285 30.6955 29.6556 30.8518 29.6786 31.0077L32.6463 30.569C32.6161 30.3641 32.5805 30.1589 32.5397 29.9536L29.5973 30.5389ZM19.5146 23.4191C24.0585 22.5153 28.6208 25.6292 29.5973 30.5389L32.5397 29.9536C31.2644 23.5423 25.2189 19.2257 18.9293 20.4768L19.5146 23.4191ZM12.924 33.8554C11.9474 28.9458 14.9708 24.323 19.5146 23.4191L18.9293 20.4768C12.6397 21.7279 8.70636 28.0294 9.98164 34.4407L12.924 33.8554ZM13.0283 34.3197C12.99 34.1668 12.9552 34.0121 12.924 33.8554L9.98164 34.4407C10.0225 34.646 10.0682 34.8491 10.1186 35.05L13.0283 34.3197ZM11.8661 36.156L31.4551 32.2595L30.8698 29.3172L11.2808 33.2137L11.8661 36.156Z" fill="#4B6274" mask="url(#path-13-inside-5_2743_995)"/>
<circle cx="30" cy="30" r="6.25" fill="url(#paint8_linear_2743_995)" stroke="#4B6274" stroke-width="1.5"/>
<circle cx="30" cy="30" r="3" fill="url(#paint9_linear_2743_995)" stroke="#4B6274" stroke-width="1.5"/>
<defs>
<linearGradient id="paint0_linear_2743_995" x1="7" y1="4" x2="7" y2="10" gradientUnits="userSpaceOnUse">
<stop stop-color="#3F76FF"/>
<stop offset="0.4" stop-color="#3C96E9"/>
</linearGradient>
<linearGradient id="paint1_linear_2743_995" x1="53" y1="4" x2="53" y2="10" gradientUnits="userSpaceOnUse">
<stop stop-color="#3F76FF"/>
<stop offset="0.4" stop-color="#3C96E9"/>
</linearGradient>
<linearGradient id="paint2_linear_2743_995" x1="53" y1="50" x2="53" y2="56" gradientUnits="userSpaceOnUse">
<stop stop-color="#3F76FF"/>
<stop offset="0.4" stop-color="#3C96E9"/>
</linearGradient>
<linearGradient id="paint3_linear_2743_995" x1="30" y1="3" x2="30" y2="57" gradientUnits="userSpaceOnUse">
<stop stop-color="#3F76FF"/>
<stop offset="0.4" stop-color="#3C96E9"/>
</linearGradient>
<linearGradient id="paint4_linear_2743_995" x1="30.7068" y1="10.4872" x2="34.6086" y2="30.1029" gradientUnits="userSpaceOnUse">
<stop stop-color="#3F76FF"/>
<stop offset="0.4" stop-color="#3C96E9"/>
</linearGradient>
<linearGradient id="paint5_linear_2743_995" x1="49.5128" y1="30.7068" x2="29.8971" y2="34.6086" gradientUnits="userSpaceOnUse">
<stop stop-color="#3F76FF"/>
<stop offset="0.4" stop-color="#3C96E9"/>
</linearGradient>
<linearGradient id="paint6_linear_2743_995" x1="29.2931" y1="49.5128" x2="25.3913" y2="29.8971" gradientUnits="userSpaceOnUse">
<stop stop-color="#3F76FF"/>
<stop offset="0.4" stop-color="#3C96E9"/>
</linearGradient>
<linearGradient id="paint7_linear_2743_995" x1="10.4871" y1="29.2932" x2="30.1028" y2="25.3914" gradientUnits="userSpaceOnUse">
<stop stop-color="#3F76FF"/>
<stop offset="0.4" stop-color="#3C96E9"/>
</linearGradient>
<linearGradient id="paint8_linear_2743_995" x1="30" y1="23" x2="30" y2="37" gradientUnits="userSpaceOnUse">
<stop stop-color="#3F76FF"/>
<stop offset="0.4" stop-color="#3C96E9"/>
</linearGradient>
<linearGradient id="paint9_linear_2743_995" x1="30" y1="27" x2="30" y2="33" gradientUnits="userSpaceOnUse">
<stop stop-color="#3F76FF"/>
<stop offset="0.4" stop-color="#3C96E9"/>
</linearGradient>
</defs>
</svg>
