<svg width="60" height="60" viewBox="0 0 60 60" fill="none" xmlns="http://www.w3.org/2000/svg">
<rect x="1" y="1" width="58" height="58" rx="2" stroke="#4B6274" stroke-width="1.5"/>
<circle cx="7" cy="7" r="2.25" fill="url(#paint0_linear_2727_822)" stroke="#4B6274" stroke-width="1.5"/>
<circle cx="53" cy="7" r="2.25" fill="url(#paint1_linear_2727_822)" stroke="#4B6274" stroke-width="1.5"/>
<circle cx="53" cy="53" r="2.25" fill="url(#paint2_linear_2727_822)" stroke="#4B6274" stroke-width="1.5"/>
<circle cx="7" cy="53" r="2.25" fill="url(#paint3_linear_2727_822)" stroke="#4B6274" stroke-width="1.5"/>
<mask id="path-6-inside-1_2727_822" fill="white">
<path d="M57 30C57 44.9117 44.9117 57 30 57C15.0883 57 3 44.9117 3 30C3 15.0883 15.0883 3 30 3C44.9117 3 57 15.0883 57 30ZM8.35827 30C8.35827 41.9524 18.0476 51.6417 30 51.6417C41.9524 51.6417 51.6417 41.9524 51.6417 30C51.6417 18.0476 41.9524 8.35827 30 8.35827C18.0476 8.35827 8.35827 18.0476 8.35827 30Z"/>
</mask>
<path d="M57 30C57 44.9117 44.9117 57 30 57C15.0883 57 3 44.9117 3 30C3 15.0883 15.0883 3 30 3C44.9117 3 57 15.0883 57 30ZM8.35827 30C8.35827 41.9524 18.0476 51.6417 30 51.6417C41.9524 51.6417 51.6417 41.9524 51.6417 30C51.6417 18.0476 41.9524 8.35827 30 8.35827C18.0476 8.35827 8.35827 18.0476 8.35827 30Z" fill="url(#paint4_linear_2727_822)" stroke="#4B6274" stroke-width="3" mask="url(#path-6-inside-1_2727_822)"/>
<mask id="path-7-inside-2_2727_822" fill="white">
<path fill-rule="evenodd" clip-rule="evenodd" d="M29.7165 31.3756C29.873 31.282 30.028 31.1839 30.1814 31.0814C34.9801 27.875 36.3829 21.5531 33.3145 16.961C30.2462 12.3689 23.8687 11.2456 19.07 14.452C18.9166 14.5545 18.7667 14.6602 18.6202 14.7689L29.7165 31.3756Z"/>
</mask>
<path fill-rule="evenodd" clip-rule="evenodd" d="M29.7165 31.3756C29.873 31.282 30.028 31.1839 30.1814 31.0814C34.9801 27.875 36.3829 21.5531 33.3145 16.961C30.2462 12.3689 23.8687 11.2456 19.07 14.452C18.9166 14.5545 18.7667 14.6602 18.6202 14.7689L29.7165 31.3756Z" fill="url(#paint5_linear_2727_822)"/>
<path d="M29.7165 31.3756L28.4693 32.209L29.2623 33.3959L30.487 32.6626L29.7165 31.3756ZM18.6202 14.7689L17.7261 13.5645L16.58 14.4154L17.373 15.6022L18.6202 14.7689ZM29.348 29.8342C29.2153 29.9229 29.0812 30.0077 28.946 30.0887L30.487 32.6626C30.6648 32.5562 30.8407 32.4449 31.0147 32.3286L29.348 29.8342ZM32.0673 17.7943C34.6412 21.6464 33.5102 27.0531 29.348 29.8342L31.0147 32.3286C36.45 28.6969 38.1245 21.4597 34.5617 16.1276L32.0673 17.7943ZM19.9033 15.6992C24.0656 12.9181 29.4934 13.9422 32.0673 17.7943L34.5617 16.1276C30.999 10.7956 23.6719 9.5731 18.2366 13.2048L19.9033 15.6992ZM19.5144 15.9733C19.6409 15.8793 19.7706 15.7879 19.9033 15.6992L18.2366 13.2048C18.0626 13.3211 17.8924 13.441 17.7261 13.5645L19.5144 15.9733ZM17.373 15.6022L28.4693 32.209L30.9637 30.5423L19.8674 13.9355L17.373 15.6022Z" fill="#4B6274" mask="url(#path-7-inside-2_2727_822)"/>
<mask id="path-9-inside-3_2727_822" fill="white">
<path fill-rule="evenodd" clip-rule="evenodd" d="M28.6242 29.7165C28.7179 29.8729 28.816 30.0279 28.9185 30.1813C32.1249 34.98 38.4468 36.3828 43.0389 33.3145C47.631 30.2461 48.7543 23.8686 45.5479 19.0699C45.4454 18.9165 45.3397 18.7666 45.231 18.6202L28.6242 29.7165Z"/>
</mask>
<path fill-rule="evenodd" clip-rule="evenodd" d="M28.6242 29.7165C28.7179 29.8729 28.816 30.0279 28.9185 30.1813C32.1249 34.98 38.4468 36.3828 43.0389 33.3145C47.631 30.2461 48.7543 23.8686 45.5479 19.0699C45.4454 18.9165 45.3397 18.7666 45.231 18.6202L28.6242 29.7165Z" fill="url(#paint6_linear_2727_822)"/>
<path d="M28.6242 29.7165L27.7909 28.4692L26.604 29.2623L27.3373 30.487L28.6242 29.7165ZM45.231 18.6202L46.4354 17.726L45.5845 16.5799L44.3976 17.373L45.231 18.6202ZM30.1657 29.348C30.077 29.2152 29.9922 29.0811 29.9112 28.9459L27.3373 30.487C27.4437 30.6647 27.555 30.8407 27.6713 31.0147L30.1657 29.348ZM42.2055 32.0673C38.3534 34.6412 32.9468 33.5102 30.1657 29.348L27.6713 31.0147C31.303 36.4499 38.5402 38.1245 43.8722 34.5617L42.2055 32.0673ZM44.3007 19.9033C47.0818 24.0655 46.0576 29.4934 42.2055 32.0673L43.8722 34.5617C49.2043 30.9989 50.4268 23.6718 46.7951 18.2366L44.3007 19.9033ZM44.0266 19.5143C44.1206 19.6408 44.212 19.7705 44.3007 19.9033L46.7951 18.2366C46.6788 18.0625 46.5588 17.8923 46.4354 17.726L44.0266 19.5143ZM44.3976 17.373L27.7909 28.4692L29.4576 30.9637L46.0643 19.8674L44.3976 17.373Z" fill="#4B6274" mask="url(#path-9-inside-3_2727_822)"/>
<mask id="path-11-inside-4_2727_822" fill="white">
<path fill-rule="evenodd" clip-rule="evenodd" d="M30.2835 28.6242C30.127 28.7179 29.972 28.8159 29.8186 28.9184C25.0199 32.1248 23.6171 38.4467 26.6855 43.0388C29.7538 47.6309 36.1313 48.7542 40.93 45.5478C41.0834 45.4453 41.2333 45.3396 41.3798 45.2309L30.2835 28.6242Z"/>
</mask>
<path fill-rule="evenodd" clip-rule="evenodd" d="M30.2835 28.6242C30.127 28.7179 29.972 28.8159 29.8186 28.9184C25.0199 32.1248 23.6171 38.4467 26.6855 43.0388C29.7538 47.6309 36.1313 48.7542 40.93 45.5478C41.0834 45.4453 41.2333 45.3396 41.3798 45.2309L30.2835 28.6242Z" fill="url(#paint7_linear_2727_822)"/>
<path d="M30.2835 28.6242L31.5307 27.7908L30.7377 26.604L29.513 27.3372L30.2835 28.6242ZM41.3798 45.2309L42.2739 46.4353L43.42 45.5844L42.627 44.3976L41.3798 45.2309ZM30.652 30.1656C30.7847 30.0769 30.9188 29.9921 31.054 29.9111L29.513 27.3372C29.3352 27.4436 29.1593 27.5549 28.9853 27.6712L30.652 30.1656ZM27.9327 42.2055C25.3588 38.3534 26.4898 32.9467 30.652 30.1656L28.9853 27.6712C23.55 31.3029 21.8755 38.5401 25.4383 43.8722L27.9327 42.2055ZM40.0967 44.3006C35.9344 47.0817 30.5066 46.0576 27.9327 42.2055L25.4383 43.8722C29.001 49.2042 36.3281 50.4267 41.7634 46.795L40.0967 44.3006ZM40.4856 44.0266C40.3591 44.1205 40.2294 44.2119 40.0967 44.3006L41.7634 46.795C41.9374 46.6787 42.1076 46.5588 42.2739 46.4353L40.4856 44.0266ZM42.627 44.3976L31.5307 27.7908L29.0363 29.4575L40.1326 46.0643L42.627 44.3976Z" fill="#4B6274" mask="url(#path-11-inside-4_2727_822)"/>
<mask id="path-13-inside-5_2727_822" fill="white">
<path fill-rule="evenodd" clip-rule="evenodd" d="M31.3758 30.2834C31.2821 30.1269 31.184 29.9719 31.0815 29.8185C27.8751 25.0198 21.5532 23.617 16.9611 26.6853C12.369 29.7537 11.2457 36.1312 14.4521 40.9299C14.5546 41.0833 14.6603 41.2332 14.769 41.3796L31.3758 30.2834Z"/>
</mask>
<path fill-rule="evenodd" clip-rule="evenodd" d="M31.3758 30.2834C31.2821 30.1269 31.184 29.9719 31.0815 29.8185C27.8751 25.0198 21.5532 23.617 16.9611 26.6853C12.369 29.7537 11.2457 36.1312 14.4521 40.9299C14.5546 41.0833 14.6603 41.2332 14.769 41.3796L31.3758 30.2834Z" fill="url(#paint8_linear_2727_822)"/>
<path d="M31.3758 30.2834L32.2091 31.5306L33.396 30.7375L32.6627 29.5128L31.3758 30.2834ZM14.769 41.3796L13.5646 42.2738L14.4155 43.4199L15.6024 42.6268L14.769 41.3796ZM29.8343 30.6518C29.923 30.7846 30.0078 30.9187 30.0888 31.0539L32.6627 29.5128C32.5563 29.3351 32.445 29.1592 32.3287 28.9851L29.8343 30.6518ZM17.7945 27.9325C21.6466 25.3587 27.0532 26.4896 29.8343 30.6518L32.3287 28.9851C28.697 23.5499 21.4598 21.8754 16.1278 25.4381L17.7945 27.9325ZM15.6993 40.0965C12.9182 35.9343 13.9424 30.5064 17.7945 27.9325L16.1278 25.4381C10.7957 29.0009 9.57322 36.328 13.2049 41.7633L15.6993 40.0965ZM15.9734 40.4855C15.8794 40.359 15.788 40.2293 15.6993 40.0965L13.2049 41.7633C13.3212 41.9373 13.4412 42.1075 13.5646 42.2738L15.9734 40.4855ZM15.6024 42.6268L32.2091 31.5306L30.5424 29.0362L13.9357 40.1324L15.6024 42.6268Z" fill="#4B6274" mask="url(#path-13-inside-5_2727_822)"/>
<circle cx="30" cy="30" r="6.25" fill="url(#paint9_linear_2727_822)" stroke="#4B6274" stroke-width="1.5"/>
<circle cx="30" cy="30" r="3" fill="url(#paint10_linear_2727_822)" stroke="#4B6274" stroke-width="1.5"/>
<defs>
<linearGradient id="paint0_linear_2727_822" x1="7" y1="4" x2="7" y2="10" gradientUnits="userSpaceOnUse">
<stop stop-color="#3F76FF"/>
<stop offset="0.4" stop-color="#3C96E9"/>
</linearGradient>
<linearGradient id="paint1_linear_2727_822" x1="53" y1="4" x2="53" y2="10" gradientUnits="userSpaceOnUse">
<stop stop-color="#3F76FF"/>
<stop offset="0.4" stop-color="#3C96E9"/>
</linearGradient>
<linearGradient id="paint2_linear_2727_822" x1="53" y1="50" x2="53" y2="56" gradientUnits="userSpaceOnUse">
<stop stop-color="#3F76FF"/>
<stop offset="0.4" stop-color="#3C96E9"/>
</linearGradient>
<linearGradient id="paint3_linear_2727_822" x1="7" y1="50" x2="7" y2="56" gradientUnits="userSpaceOnUse">
<stop stop-color="#3F76FF"/>
<stop offset="0.4" stop-color="#3C96E9"/>
</linearGradient>
<linearGradient id="paint4_linear_2727_822" x1="30" y1="3" x2="30" y2="57" gradientUnits="userSpaceOnUse">
<stop stop-color="#3F76FF"/>
<stop offset="0.4" stop-color="#3C96E9"/>
</linearGradient>
<linearGradient id="paint5_linear_2727_822" x1="23.1858" y1="11.7019" x2="34.2972" y2="28.3313" gradientUnits="userSpaceOnUse">
<stop stop-color="#3F76FF"/>
<stop offset="0.4" stop-color="#3C96E9"/>
</linearGradient>
<linearGradient id="paint6_linear_2727_822" x1="48.2979" y1="23.1857" x2="31.6686" y2="34.2971" gradientUnits="userSpaceOnUse">
<stop stop-color="#3F76FF"/>
<stop offset="0.4" stop-color="#3C96E9"/>
</linearGradient>
<linearGradient id="paint7_linear_2727_822" x1="36.8142" y1="48.2979" x2="25.7028" y2="31.6685" gradientUnits="userSpaceOnUse">
<stop stop-color="#3F76FF"/>
<stop offset="0.4" stop-color="#3C96E9"/>
</linearGradient>
<linearGradient id="paint8_linear_2727_822" x1="11.7021" y1="36.8141" x2="28.3314" y2="25.7027" gradientUnits="userSpaceOnUse">
<stop stop-color="#3F76FF"/>
<stop offset="0.4" stop-color="#3C96E9"/>
</linearGradient>
<linearGradient id="paint9_linear_2727_822" x1="30" y1="23" x2="30" y2="37" gradientUnits="userSpaceOnUse">
<stop stop-color="#3F76FF"/>
<stop offset="0.4" stop-color="#3C96E9"/>
</linearGradient>
<linearGradient id="paint10_linear_2727_822" x1="30" y1="27" x2="30" y2="33" gradientUnits="userSpaceOnUse">
<stop stop-color="#3F76FF"/>
<stop offset="0.4" stop-color="#3C96E9"/>
</linearGradient>
</defs>
</svg>
