<svg width="60" height="60" viewBox="0 0 60 60" fill="none" xmlns="http://www.w3.org/2000/svg">
<rect x="1" y="1" width="58" height="58" rx="2" stroke="#4B6274" stroke-width="1.5"/>
<circle cx="7" cy="7" r="2.25" fill="url(#paint0_linear_2727_844)" stroke="#4B6274" stroke-width="1.5"/>
<circle cx="53" cy="7" r="2.25" fill="url(#paint1_linear_2727_844)" stroke="#4B6274" stroke-width="1.5"/>
<circle cx="53" cy="53" r="2.25" fill="url(#paint2_linear_2727_844)" stroke="#4B6274" stroke-width="1.5"/>
<circle cx="7" cy="53" r="2.25" fill="url(#paint3_linear_2727_844)" stroke="#4B6274" stroke-width="1.5"/>
<mask id="path-6-inside-1_2727_844" fill="white">
<path d="M57 30C57 44.9117 44.9117 57 30 57C15.0883 57 3 44.9117 3 30C3 15.0883 15.0883 3 30 3C44.9117 3 57 15.0883 57 30ZM8.35827 30C8.35827 41.9524 18.0476 51.6417 30 51.6417C41.9524 51.6417 51.6417 41.9524 51.6417 30C51.6417 18.0476 41.9524 8.35827 30 8.35827C18.0476 8.35827 8.35827 18.0476 8.35827 30Z"/>
</mask>
<path d="M57 30C57 44.9117 44.9117 57 30 57C15.0883 57 3 44.9117 3 30C3 15.0883 15.0883 3 30 3C44.9117 3 57 15.0883 57 30ZM8.35827 30C8.35827 41.9524 18.0476 51.6417 30 51.6417C41.9524 51.6417 51.6417 41.9524 51.6417 30C51.6417 18.0476 41.9524 8.35827 30 8.35827C18.0476 8.35827 8.35827 18.0476 8.35827 30Z" fill="url(#paint4_linear_2727_844)" stroke="#4B6274" stroke-width="3" mask="url(#path-6-inside-1_2727_844)"/>
<mask id="path-7-inside-2_2727_844" fill="white">
<path fill-rule="evenodd" clip-rule="evenodd" d="M29.9903 31.4046C30.1255 31.2822 30.2584 31.1558 30.3888 31.0253C34.4698 26.9443 34.6123 20.4702 30.707 16.565C26.8018 12.6597 20.3277 12.8022 16.2467 16.8832C16.1162 17.0136 15.9898 17.1465 15.8674 17.2817L29.9903 31.4046Z"/>
</mask>
<path fill-rule="evenodd" clip-rule="evenodd" d="M29.9903 31.4046C30.1255 31.2822 30.2584 31.1558 30.3888 31.0253C34.4698 26.9443 34.6123 20.4702 30.707 16.565C26.8018 12.6597 20.3277 12.8022 16.2467 16.8832C16.1162 17.0136 15.9898 17.1465 15.8674 17.2817L29.9903 31.4046Z" fill="url(#paint5_linear_2727_844)"/>
<path d="M29.9903 31.4046L28.9296 32.4653L29.939 33.4746L30.9971 32.5165L29.9903 31.4046ZM15.8674 17.2817L14.7555 16.2749L13.7974 17.333L14.8068 18.3424L15.8674 17.2817ZM29.3282 29.9647C29.2153 30.0776 29.1003 30.1869 28.9835 30.2927L30.9971 32.5165C31.1506 32.3775 31.3015 32.234 31.4495 32.086L29.3282 29.9647ZM29.6464 17.6256C32.9223 20.9016 32.8678 26.425 29.3282 29.9647L31.4495 32.086C36.0718 27.4637 36.3022 20.0389 31.7677 15.5043L29.6464 17.6256ZM17.3074 17.9438C20.847 14.4042 26.3704 14.3497 29.6464 17.6256L31.7677 15.5043C27.2331 10.9698 19.8083 11.2002 15.186 15.8225L17.3074 17.9438ZM16.9793 18.2885C17.0851 18.1717 17.1944 18.0568 17.3074 17.9438L15.186 15.8225C15.038 15.9705 14.8945 16.1214 14.7555 16.2749L16.9793 18.2885ZM14.8068 18.3424L28.9296 32.4653L31.051 30.3439L16.9281 16.2211L14.8068 18.3424Z" fill="#4B6274" mask="url(#path-7-inside-2_2727_844)"/>
<mask id="path-9-inside-3_2727_844" fill="white">
<path fill-rule="evenodd" clip-rule="evenodd" d="M28.5954 29.9904C28.7178 30.1255 28.8442 30.2584 28.9747 30.3889C33.0557 34.4699 39.5298 34.6123 43.435 30.7071C47.3403 26.8018 47.1978 20.3277 43.1168 16.2468C42.9864 16.1163 42.8535 15.9899 42.7183 15.8675L28.5954 29.9904Z"/>
</mask>
<path fill-rule="evenodd" clip-rule="evenodd" d="M28.5954 29.9904C28.7178 30.1255 28.8442 30.2584 28.9747 30.3889C33.0557 34.4699 39.5298 34.6123 43.435 30.7071C47.3403 26.8018 47.1978 20.3277 43.1168 16.2468C42.9864 16.1163 42.8535 15.9899 42.7183 15.8675L28.5954 29.9904Z" fill="url(#paint6_linear_2727_844)"/>
<path d="M28.5954 29.9904L27.5347 28.9297L26.5254 29.939L27.4835 30.9972L28.5954 29.9904ZM42.7183 15.8675L43.7251 14.7556L42.667 13.7975L41.6576 14.8068L42.7183 15.8675ZM30.0353 29.3282C29.9224 29.2153 29.8131 29.1004 29.7073 28.9836L27.4835 30.9972C27.6225 31.1507 27.766 31.3016 27.914 31.4496L30.0353 29.3282ZM42.3744 29.6464C39.0984 32.9224 33.575 32.8679 30.0353 29.3282L27.914 31.4496C32.5363 36.0718 39.9611 36.3023 44.4957 31.7678L42.3744 29.6464ZM42.0562 17.3074C45.5958 20.8471 45.6503 26.3705 42.3744 29.6464L44.4957 31.7678C49.0302 27.2332 48.7998 19.8084 44.1775 15.1861L42.0562 17.3074ZM41.7115 16.9794C41.8283 17.0852 41.9432 17.1945 42.0562 17.3074L44.1775 15.1861C44.0295 15.0381 43.8786 14.8946 43.7251 14.7556L41.7115 16.9794ZM41.6576 14.8068L27.5347 28.9297L29.6561 31.051L43.7789 16.9281L41.6576 14.8068Z" fill="#4B6274" mask="url(#path-9-inside-3_2727_844)"/>
<mask id="path-11-inside-4_2727_844" fill="white">
<path fill-rule="evenodd" clip-rule="evenodd" d="M30.0096 28.5954C29.8744 28.7178 29.7415 28.8442 29.611 28.9747C25.5301 33.0557 25.3876 39.5298 29.2928 43.435C33.1981 47.3403 39.6722 47.1978 43.7532 43.1168C43.8836 42.9864 44.0101 42.8535 44.1325 42.7183L30.0096 28.5954Z"/>
</mask>
<path fill-rule="evenodd" clip-rule="evenodd" d="M30.0096 28.5954C29.8744 28.7178 29.7415 28.8442 29.611 28.9747C25.5301 33.0557 25.3876 39.5298 29.2928 43.435C33.1981 47.3403 39.6722 47.1978 43.7532 43.1168C43.8836 42.9864 44.0101 42.8535 44.1325 42.7183L30.0096 28.5954Z" fill="url(#paint7_linear_2727_844)"/>
<path d="M30.0096 28.5954L31.0702 27.5347L30.0609 26.5254L29.0028 27.4835L30.0096 28.5954ZM44.1325 42.7183L45.2444 43.7251L46.2025 42.667L45.1931 41.6576L44.1325 42.7183ZM30.6717 30.0353C30.7846 29.9224 30.8996 29.8131 31.0164 29.7073L29.0028 27.4835C28.8492 27.6225 28.6984 27.766 28.5504 27.914L30.6717 30.0353ZM30.3535 42.3744C27.0776 39.0984 27.132 33.575 30.6717 30.0353L28.5504 27.914C23.9281 32.5363 23.6976 39.9611 28.2322 44.4957L30.3535 42.3744ZM42.6925 42.0562C39.1528 45.5958 33.6294 45.6503 30.3535 42.3744L28.2322 44.4957C32.7667 49.0302 40.1916 48.7998 44.8138 44.1775L42.6925 42.0562ZM43.0205 41.7115C42.9148 41.8283 42.8054 41.9432 42.6925 42.0562L44.8138 44.1775C44.9618 44.0295 45.1054 43.8786 45.2444 43.7251L43.0205 41.7115ZM45.1931 41.6576L31.0702 27.5347L28.9489 29.6561L43.0718 43.7789L45.1931 41.6576Z" fill="#4B6274" mask="url(#path-11-inside-4_2727_844)"/>
<mask id="path-13-inside-5_2727_844" fill="white">
<path fill-rule="evenodd" clip-rule="evenodd" d="M31.4045 30.0096C31.2821 29.8745 31.1557 29.7416 31.0252 29.6111C26.9442 25.5301 20.4701 25.3877 16.5649 29.2929C12.6596 33.1982 12.8021 39.6723 16.8831 43.7532C17.0135 43.8837 17.1464 44.0101 17.2816 44.1325L31.4045 30.0096Z"/>
</mask>
<path fill-rule="evenodd" clip-rule="evenodd" d="M31.4045 30.0096C31.2821 29.8745 31.1557 29.7416 31.0252 29.6111C26.9442 25.5301 20.4701 25.3877 16.5649 29.2929C12.6596 33.1982 12.8021 39.6723 16.8831 43.7532C17.0135 43.8837 17.1464 44.0101 17.2816 44.1325L31.4045 30.0096Z" fill="url(#paint8_linear_2727_844)"/>
<path d="M31.4045 30.0096L32.4651 31.0703L33.4745 30.061L32.5164 29.0028L31.4045 30.0096ZM17.2816 44.1325L16.2748 45.2444L17.3329 46.2025L18.3423 45.1932L17.2816 44.1325ZM29.9645 30.6718C30.0775 30.7847 30.1868 30.8996 30.2926 31.0164L32.5164 29.0028C32.3774 28.8493 32.2339 28.6984 32.0859 28.5504L29.9645 30.6718ZM17.6255 30.3536C20.9015 27.0776 26.4249 27.1321 29.9645 30.6718L32.0859 28.5504C27.4636 23.9282 20.0387 23.6977 15.5042 28.2322L17.6255 30.3536ZM17.9437 42.6926C14.404 39.1529 14.3496 33.6295 17.6255 30.3536L15.5042 28.2322C10.9697 32.7668 11.2001 40.1916 15.8224 44.8139L17.9437 42.6926ZM18.2884 43.0206C18.1716 42.9148 18.0566 42.8055 17.9437 42.6926L15.8224 44.8139C15.9704 44.9619 16.1213 45.1054 16.2748 45.2444L18.2884 43.0206ZM18.3423 45.1932L32.4651 31.0703L30.3438 28.949L16.2209 43.0719L18.3423 45.1932Z" fill="#4B6274" mask="url(#path-13-inside-5_2727_844)"/>
<circle cx="30" cy="30" r="6.25" fill="url(#paint9_linear_2727_844)" stroke="#4B6274" stroke-width="1.5"/>
<circle cx="30" cy="30" r="3" fill="url(#paint10_linear_2727_844)" stroke="#4B6274" stroke-width="1.5"/>
<defs>
<linearGradient id="paint0_linear_2727_844" x1="7" y1="4" x2="7" y2="10" gradientUnits="userSpaceOnUse">
<stop stop-color="#3F76FF"/>
<stop offset="0.4" stop-color="#3C96E9"/>
</linearGradient>
<linearGradient id="paint1_linear_2727_844" x1="53" y1="4" x2="53" y2="10" gradientUnits="userSpaceOnUse">
<stop stop-color="#3F76FF"/>
<stop offset="0.4" stop-color="#3C96E9"/>
</linearGradient>
<linearGradient id="paint2_linear_2727_844" x1="53" y1="50" x2="53" y2="56" gradientUnits="userSpaceOnUse">
<stop stop-color="#3F76FF"/>
<stop offset="0.4" stop-color="#3C96E9"/>
</linearGradient>
<linearGradient id="paint3_linear_2727_844" x1="7" y1="50" x2="7" y2="56" gradientUnits="userSpaceOnUse">
<stop stop-color="#3F76FF"/>
<stop offset="0.4" stop-color="#3C96E9"/>
</linearGradient>
<linearGradient id="paint4_linear_2727_844" x1="30" y1="3" x2="30" y2="57" gradientUnits="userSpaceOnUse">
<stop stop-color="#3F76FF"/>
<stop offset="0.4" stop-color="#3C96E9"/>
</linearGradient>
<linearGradient id="paint5_linear_2727_844" x1="19.7469" y1="13.383" x2="33.889" y2="27.5251" gradientUnits="userSpaceOnUse">
<stop stop-color="#3F76FF"/>
<stop offset="0.4" stop-color="#3C96E9"/>
</linearGradient>
<linearGradient id="paint6_linear_2727_844" x1="46.617" y1="19.7469" x2="32.4749" y2="33.8891" gradientUnits="userSpaceOnUse">
<stop stop-color="#3F76FF"/>
<stop offset="0.4" stop-color="#3C96E9"/>
</linearGradient>
<linearGradient id="paint7_linear_2727_844" x1="40.253" y1="46.617" x2="26.1109" y2="32.4749" gradientUnits="userSpaceOnUse">
<stop stop-color="#3F76FF"/>
<stop offset="0.4" stop-color="#3C96E9"/>
</linearGradient>
<linearGradient id="paint8_linear_2727_844" x1="13.3829" y1="40.2531" x2="27.525" y2="26.1109" gradientUnits="userSpaceOnUse">
<stop stop-color="#3F76FF"/>
<stop offset="0.4" stop-color="#3C96E9"/>
</linearGradient>
<linearGradient id="paint9_linear_2727_844" x1="30" y1="23" x2="30" y2="37" gradientUnits="userSpaceOnUse">
<stop stop-color="#3F76FF"/>
<stop offset="0.4" stop-color="#3C96E9"/>
</linearGradient>
<linearGradient id="paint10_linear_2727_844" x1="30" y1="27" x2="30" y2="33" gradientUnits="userSpaceOnUse">
<stop stop-color="#3F76FF"/>
<stop offset="0.4" stop-color="#3C96E9"/>
</linearGradient>
</defs>
</svg>
