<svg width="60" height="60" viewBox="0 0 60 60" fill="none" xmlns="http://www.w3.org/2000/svg">
<rect x="1" y="1" width="58" height="58" rx="2" stroke="#4B6274" stroke-width="1.5"/>
<circle cx="7" cy="7" r="2.25" fill="url(#paint0_linear_2727_757)" stroke="#4B6274" stroke-width="1.5"/>
<circle cx="53" cy="7" r="2.25" fill="url(#paint1_linear_2727_757)" stroke="#4B6274" stroke-width="1.5"/>
<circle cx="53" cy="53" r="2.25" fill="url(#paint2_linear_2727_757)" stroke="#4B6274" stroke-width="1.5"/>
<circle cx="7" cy="53" r="2.25" fill="url(#paint3_linear_2727_757)" stroke="#4B6274" stroke-width="1.5"/>
<mask id="path-6-inside-1_2727_757" fill="white">
<path d="M57 30C57 44.9117 44.9117 57 30 57C15.0883 57 3 44.9117 3 30C3 15.0883 15.0883 3 30 3C44.9117 3 57 15.0883 57 30ZM8.35827 30C8.35827 41.9524 18.0476 51.6417 30 51.6417C41.9524 51.6417 51.6417 41.9524 51.6417 30C51.6417 18.0476 41.9524 8.35827 30 8.35827C18.0476 8.35827 8.35827 18.0476 8.35827 30Z"/>
</mask>
<path d="M57 30C57 44.9117 44.9117 57 30 57C15.0883 57 3 44.9117 3 30C3 15.0883 15.0883 3 30 3C44.9117 3 57 15.0883 57 30ZM8.35827 30C8.35827 41.9524 18.0476 51.6417 30 51.6417C41.9524 51.6417 51.6417 41.9524 51.6417 30C51.6417 18.0476 41.9524 8.35827 30 8.35827C18.0476 8.35827 8.35827 18.0476 8.35827 30Z" fill="url(#paint4_linear_2727_757)" stroke="#4B6274" stroke-width="3" mask="url(#path-6-inside-1_2727_757)"/>
<mask id="path-7-inside-2_2727_757" fill="white">
<path fill-rule="evenodd" clip-rule="evenodd" d="M29 30.9864C29.1821 30.9954 29.3655 31 29.55 31C35.3214 31 40 26.5228 40 21C40 15.4772 35.3214 11 29.55 11C29.3655 11 29.1821 11.0046 29 11.0136V30.9864Z"/>
</mask>
<path fill-rule="evenodd" clip-rule="evenodd" d="M29 30.9864C29.1821 30.9954 29.3655 31 29.55 31C35.3214 31 40 26.5228 40 21C40 15.4772 35.3214 11 29.55 11C29.3655 11 29.1821 11.0046 29 11.0136V30.9864Z" fill="url(#paint5_linear_2727_757)"/>
<path d="M29 30.9864H27.5V32.4138L28.9257 32.4845L29 30.9864ZM29 11.0136L28.9257 9.51546L27.5 9.5862V11.0136H29ZM29.55 29.5C29.3903 29.5 29.2317 29.496 29.0743 29.4882L28.9257 32.4845C29.1325 32.4948 29.3407 32.5 29.55 32.5V29.5ZM38.5 21C38.5 25.6329 34.5559 29.5 29.55 29.5V32.5C36.0869 32.5 41.5 27.4128 41.5 21H38.5ZM29.55 12.5C34.5559 12.5 38.5 16.3671 38.5 21H41.5C41.5 14.5872 36.0869 9.5 29.55 9.5V12.5ZM29.0743 12.5118C29.2317 12.504 29.3903 12.5 29.55 12.5V9.5C29.3407 9.5 29.1326 9.50519 28.9257 9.51546L29.0743 12.5118ZM27.5 11.0136V30.9864H30.5V11.0136H27.5Z" fill="#4B6274" mask="url(#path-7-inside-2_2727_757)"/>
<mask id="path-9-inside-3_2727_757" fill="white">
<path fill-rule="evenodd" clip-rule="evenodd" d="M29.0136 29C29.0046 29.1821 29 29.3655 29 29.55C29 35.3214 33.4772 40 39 40C44.5228 40 49 35.3214 49 29.55C49 29.3655 48.9954 29.1821 48.9864 29L29.0136 29Z"/>
</mask>
<path fill-rule="evenodd" clip-rule="evenodd" d="M29.0136 29C29.0046 29.1821 29 29.3655 29 29.55C29 35.3214 33.4772 40 39 40C44.5228 40 49 35.3214 49 29.55C49 29.3655 48.9954 29.1821 48.9864 29L29.0136 29Z" fill="url(#paint6_linear_2727_757)"/>
<path d="M29.0136 29V27.5H27.5862L27.5155 28.9257L29.0136 29ZM48.9864 29L50.4845 28.9257L50.4138 27.5H48.9864V29ZM30.5 29.55C30.5 29.3903 30.504 29.2317 30.5118 29.0743L27.5155 28.9257C27.5052 29.1325 27.5 29.3407 27.5 29.55H30.5ZM39 38.5C34.3671 38.5 30.5 34.5559 30.5 29.55H27.5C27.5 36.0869 32.5872 41.5 39 41.5V38.5ZM47.5 29.55C47.5 34.5559 43.6329 38.5 39 38.5V41.5C45.4128 41.5 50.5 36.0869 50.5 29.55H47.5ZM47.4882 29.0743C47.496 29.2317 47.5 29.3903 47.5 29.55H50.5C50.5 29.3407 50.4948 29.1326 50.4845 28.9257L47.4882 29.0743ZM48.9864 27.5L29.0136 27.5V30.5L48.9864 30.5V27.5Z" fill="#4B6274" mask="url(#path-9-inside-3_2727_757)"/>
<mask id="path-11-inside-4_2727_757" fill="white">
<path fill-rule="evenodd" clip-rule="evenodd" d="M31 29.0136C30.8179 29.0046 30.6345 29 30.45 29C24.6786 29 20 33.4772 20 39C20 44.5228 24.6786 49 30.45 49C30.6345 49 30.8179 48.9954 31 48.9864L31 29.0136Z"/>
</mask>
<path fill-rule="evenodd" clip-rule="evenodd" d="M31 29.0136C30.8179 29.0046 30.6345 29 30.45 29C24.6786 29 20 33.4772 20 39C20 44.5228 24.6786 49 30.45 49C30.6345 49 30.8179 48.9954 31 48.9864L31 29.0136Z" fill="url(#paint7_linear_2727_757)"/>
<path d="M31 29.0136H32.5V27.5862L31.0743 27.5155L31 29.0136ZM31 48.9864L31.0743 50.4845L32.5 50.4138V48.9864H31ZM30.45 30.5C30.6097 30.5 30.7683 30.504 30.9257 30.5118L31.0743 27.5155C30.8675 27.5052 30.6593 27.5 30.45 27.5V30.5ZM21.5 39C21.5 34.3671 25.4441 30.5 30.45 30.5V27.5C23.9131 27.5 18.5 32.5872 18.5 39L21.5 39ZM30.45 47.5C25.4441 47.5 21.5 43.6329 21.5 39L18.5 39C18.5 45.4128 23.9131 50.5 30.45 50.5V47.5ZM30.9257 47.4882C30.7683 47.496 30.6097 47.5 30.45 47.5V50.5C30.6593 50.5 30.8674 50.4948 31.0743 50.4845L30.9257 47.4882ZM32.5 48.9864L32.5 29.0136H29.5L29.5 48.9864H32.5Z" fill="#4B6274" mask="url(#path-11-inside-4_2727_757)"/>
<mask id="path-13-inside-5_2727_757" fill="white">
<path fill-rule="evenodd" clip-rule="evenodd" d="M30.9864 31C30.9954 30.8179 31 30.6345 31 30.45C31 24.6786 26.5228 20 21 20C15.4772 20 11 24.6786 11 30.45C11 30.6345 11.0046 30.8179 11.0136 31L30.9864 31Z"/>
</mask>
<path fill-rule="evenodd" clip-rule="evenodd" d="M30.9864 31C30.9954 30.8179 31 30.6345 31 30.45C31 24.6786 26.5228 20 21 20C15.4772 20 11 24.6786 11 30.45C11 30.6345 11.0046 30.8179 11.0136 31L30.9864 31Z" fill="url(#paint8_linear_2727_757)"/>
<path d="M30.9864 31V32.5H32.4138L32.4845 31.0743L30.9864 31ZM11.0136 31L9.51546 31.0743L9.5862 32.5H11.0136V31ZM29.5 30.45C29.5 30.6097 29.496 30.7683 29.4882 30.9257L32.4845 31.0743C32.4948 30.8675 32.5 30.6593 32.5 30.45H29.5ZM21 21.5C25.6329 21.5 29.5 25.4441 29.5 30.45H32.5C32.5 23.9131 27.4128 18.5 21 18.5V21.5ZM12.5 30.45C12.5 25.4441 16.3671 21.5 21 21.5V18.5C14.5872 18.5 9.5 23.9131 9.5 30.45H12.5ZM12.5118 30.9257C12.504 30.7683 12.5 30.6097 12.5 30.45H9.5C9.5 30.6593 9.50519 30.8674 9.51546 31.0743L12.5118 30.9257ZM11.0136 32.5H30.9864V29.5L11.0136 29.5V32.5Z" fill="#4B6274" mask="url(#path-13-inside-5_2727_757)"/>
<circle cx="30" cy="30" r="6.25" fill="url(#paint9_linear_2727_757)" stroke="#4B6274" stroke-width="1.5"/>
<circle cx="30" cy="30" r="3" fill="url(#paint10_linear_2727_757)" stroke="#4B6274" stroke-width="1.5"/>
<defs>
<linearGradient id="paint0_linear_2727_757" x1="7" y1="4" x2="7" y2="10" gradientUnits="userSpaceOnUse">
<stop stop-color="#3F76FF"/>
<stop offset="0.4" stop-color="#3C96E9"/>
</linearGradient>
<linearGradient id="paint1_linear_2727_757" x1="53" y1="4" x2="53" y2="10" gradientUnits="userSpaceOnUse">
<stop stop-color="#3F76FF"/>
<stop offset="0.4" stop-color="#3C96E9"/>
</linearGradient>
<linearGradient id="paint2_linear_2727_757" x1="53" y1="50" x2="53" y2="56" gradientUnits="userSpaceOnUse">
<stop stop-color="#3F76FF"/>
<stop offset="0.4" stop-color="#3C96E9"/>
</linearGradient>
<linearGradient id="paint3_linear_2727_757" x1="7" y1="50" x2="7" y2="56" gradientUnits="userSpaceOnUse">
<stop stop-color="#3F76FF"/>
<stop offset="0.4" stop-color="#3C96E9"/>
</linearGradient>
<linearGradient id="paint4_linear_2727_757" x1="30" y1="3" x2="30" y2="57" gradientUnits="userSpaceOnUse">
<stop stop-color="#3F76FF"/>
<stop offset="0.4" stop-color="#3C96E9"/>
</linearGradient>
<linearGradient id="paint5_linear_2727_757" x1="34.5" y1="11" x2="34.5" y2="31" gradientUnits="userSpaceOnUse">
<stop stop-color="#3F76FF"/>
<stop offset="0.4" stop-color="#3C96E9"/>
</linearGradient>
<linearGradient id="paint6_linear_2727_757" x1="49" y1="34.5" x2="29" y2="34.5" gradientUnits="userSpaceOnUse">
<stop stop-color="#3F76FF"/>
<stop offset="0.4" stop-color="#3C96E9"/>
</linearGradient>
<linearGradient id="paint7_linear_2727_757" x1="25.5" y1="49" x2="25.5" y2="29" gradientUnits="userSpaceOnUse">
<stop stop-color="#3F76FF"/>
<stop offset="0.4" stop-color="#3C96E9"/>
</linearGradient>
<linearGradient id="paint8_linear_2727_757" x1="11" y1="25.5" x2="31" y2="25.5" gradientUnits="userSpaceOnUse">
<stop stop-color="#3F76FF"/>
<stop offset="0.4" stop-color="#3C96E9"/>
</linearGradient>
<linearGradient id="paint9_linear_2727_757" x1="30" y1="23" x2="30" y2="37" gradientUnits="userSpaceOnUse">
<stop stop-color="#3F76FF"/>
<stop offset="0.4" stop-color="#3C96E9"/>
</linearGradient>
<linearGradient id="paint10_linear_2727_757" x1="30" y1="27" x2="30" y2="33" gradientUnits="userSpaceOnUse">
<stop stop-color="#3F76FF"/>
<stop offset="0.4" stop-color="#3C96E9"/>
</linearGradient>
</defs>
</svg>
