<svg width="60" height="60" viewBox="0 0 60 60" fill="none" xmlns="http://www.w3.org/2000/svg">
<rect x="1" y="1" width="58" height="58" rx="2" stroke="#4B6274" stroke-width="1.5"/>
<circle cx="7" cy="7" r="2.25" fill="url(#paint0_linear_2727_800)" stroke="#4B6274" stroke-width="1.5"/>
<circle cx="53" cy="7" r="2.25" fill="url(#paint1_linear_2727_800)" stroke="#4B6274" stroke-width="1.5"/>
<circle cx="53" cy="53" r="2.25" fill="url(#paint2_linear_2727_800)" stroke="#4B6274" stroke-width="1.5"/>
<circle cx="7" cy="53" r="2.25" fill="url(#paint3_linear_2727_800)" stroke="#4B6274" stroke-width="1.5"/>
<mask id="path-6-inside-1_2727_800" fill="white">
<path d="M57 30C57 44.9117 44.9117 57 30 57C15.0883 57 3 44.9117 3 30C3 15.0883 15.0883 3 30 3C44.9117 3 57 15.0883 57 30ZM8.35827 30C8.35827 41.9524 18.0476 51.6417 30 51.6417C41.9524 51.6417 51.6417 41.9524 51.6417 30C51.6417 18.0476 41.9524 8.35827 30 8.35827C18.0476 8.35827 8.35827 18.0476 8.35827 30Z"/>
</mask>
<path d="M57 30C57 44.9117 44.9117 57 30 57C15.0883 57 3 44.9117 3 30C3 15.0883 15.0883 3 30 3C44.9117 3 57 15.0883 57 30ZM8.35827 30C8.35827 41.9524 18.0476 51.6417 30 51.6417C41.9524 51.6417 51.6417 41.9524 51.6417 30C51.6417 18.0476 41.9524 8.35827 30 8.35827C18.0476 8.35827 8.35827 18.0476 8.35827 30Z" fill="url(#paint4_linear_2727_800)" stroke="#4B6274" stroke-width="3" mask="url(#path-6-inside-1_2727_800)"/>
<mask id="path-7-inside-2_2727_800" fill="white">
<path fill-rule="evenodd" clip-rule="evenodd" d="M29.4536 31.294C29.6253 31.2326 29.7965 31.1667 29.9669 31.0961C35.299 28.8875 37.9081 22.9607 35.7946 17.8583C33.6811 12.7558 27.6453 10.4099 22.3132 12.6185C22.1428 12.6891 21.9751 12.7635 21.8103 12.8416L29.4536 31.294Z"/>
</mask>
<path fill-rule="evenodd" clip-rule="evenodd" d="M29.4536 31.294C29.6253 31.2326 29.7965 31.1667 29.9669 31.0961C35.299 28.8875 37.9081 22.9607 35.7946 17.8583C33.6811 12.7558 27.6453 10.4099 22.3132 12.6185C22.1428 12.6891 21.9751 12.7635 21.8103 12.8416L29.4536 31.294Z" fill="url(#paint5_linear_2727_800)"/>
<path d="M29.4536 31.294L28.0678 31.868L28.614 33.1868L29.9582 32.7066L29.4536 31.294ZM21.8103 12.8416L21.1683 11.4859L19.8783 12.0968L20.4245 13.4156L21.8103 12.8416ZM29.3929 29.7103C29.2454 29.7714 29.0973 29.8284 28.9489 29.8814L29.9582 32.7066C30.1533 32.6369 30.3476 32.562 30.5409 32.4819L29.3929 29.7103ZM34.4088 18.4323C36.1817 22.7125 34.0177 27.7946 29.3929 29.7103L30.5409 32.4819C36.5802 29.9804 39.6345 23.2089 37.1804 17.2842L34.4088 18.4323ZM22.8873 14.0043C27.5121 12.0887 32.6359 14.1521 34.4088 18.4323L37.1804 17.2842C34.7264 11.3596 27.7785 8.73112 21.7392 11.2327L22.8873 14.0043ZM22.4523 14.1972C22.5947 14.1298 22.7397 14.0654 22.8873 14.0043L21.7392 11.2327C21.5459 11.3128 21.3555 11.3972 21.1683 11.4859L22.4523 14.1972ZM20.4245 13.4156L28.0678 31.868L30.8394 30.72L23.1961 12.2675L20.4245 13.4156Z" fill="#4B6274" mask="url(#path-7-inside-2_2727_800)"/>
<mask id="path-9-inside-3_2727_800" fill="white">
<path fill-rule="evenodd" clip-rule="evenodd" d="M28.706 29.4536C28.7674 29.6254 28.8333 29.7965 28.9039 29.967C31.1125 35.299 37.0393 37.9082 42.1417 35.7947C47.2442 33.6812 49.5901 27.6454 47.3815 22.3133C47.3109 22.1429 47.2365 21.9752 47.1584 21.8104L28.706 29.4536Z"/>
</mask>
<path fill-rule="evenodd" clip-rule="evenodd" d="M28.706 29.4536C28.7674 29.6254 28.8333 29.7965 28.9039 29.967C31.1125 35.299 37.0393 37.9082 42.1417 35.7947C47.2442 33.6812 49.5901 27.6454 47.3815 22.3133C47.3109 22.1429 47.2365 21.9752 47.1584 21.8104L28.706 29.4536Z" fill="url(#paint6_linear_2727_800)"/>
<path d="M28.706 29.4536L28.132 28.0678L26.8132 28.6141L27.2934 29.9583L28.706 29.4536ZM47.1584 21.8104L48.5141 21.1684L47.9032 19.8783L46.5844 20.4246L47.1584 21.8104ZM30.2897 29.393C30.2286 29.2454 30.1716 29.0974 30.1186 28.949L27.2934 29.9583C27.3631 30.1533 27.438 30.3476 27.5181 30.541L30.2897 29.393ZM41.5677 34.4089C37.2875 36.1818 32.2054 34.0178 30.2897 29.393L27.5181 30.541C30.0196 36.5803 36.7911 39.6346 42.7158 37.1805L41.5677 34.4089ZM45.9957 22.8873C47.9113 27.5121 45.8479 32.6359 41.5677 34.4089L42.7158 37.1805C48.6404 34.7264 51.2689 27.7786 48.7673 21.7393L45.9957 22.8873ZM45.8028 22.4524C45.8702 22.5948 45.9346 22.7398 45.9957 22.8873L48.7673 21.7393C48.6872 21.5459 48.6028 21.3556 48.5141 21.1684L45.8028 22.4524ZM46.5844 20.4246L28.132 28.0678L29.28 30.8395L47.7325 23.1962L46.5844 20.4246Z" fill="#4B6274" mask="url(#path-9-inside-3_2727_800)"/>
<mask id="path-11-inside-4_2727_800" fill="white">
<path fill-rule="evenodd" clip-rule="evenodd" d="M30.5464 28.706C30.3746 28.7674 30.2035 28.8333 30.033 28.9039C24.701 31.1125 22.0918 37.0393 24.2053 42.1417C26.3188 47.2442 32.3546 49.5901 37.6867 47.3815C37.8571 47.3109 38.0248 47.2365 38.1896 47.1584L30.5464 28.706Z"/>
</mask>
<path fill-rule="evenodd" clip-rule="evenodd" d="M30.5464 28.706C30.3746 28.7674 30.2035 28.8333 30.033 28.9039C24.701 31.1125 22.0918 37.0393 24.2053 42.1417C26.3188 47.2442 32.3546 49.5901 37.6867 47.3815C37.8571 47.3109 38.0248 47.2365 38.1896 47.1584L30.5464 28.706Z" fill="url(#paint7_linear_2727_800)"/>
<path d="M30.5464 28.706L31.9322 28.132L31.3859 26.8132L30.0417 27.2934L30.5464 28.706ZM38.1896 47.1584L38.8316 48.5141L40.1217 47.9032L39.5754 46.5844L38.1896 47.1584ZM30.607 30.2897C30.7546 30.2286 30.9026 30.1716 31.051 30.1186L30.0417 27.2934C29.8467 27.3631 29.6524 27.438 29.459 27.5181L30.607 30.2897ZM25.5911 41.5677C23.8182 37.2875 25.9822 32.2054 30.607 30.2897L29.459 27.5181C23.4197 30.0196 20.3654 36.7911 22.8195 42.7158L25.5911 41.5677ZM37.1127 45.9957C32.4879 47.9113 27.3641 45.8479 25.5911 41.5677L22.8195 42.7158C25.2736 48.6404 32.2214 51.2689 38.2607 48.7673L37.1127 45.9957ZM37.5476 45.8028C37.4052 45.8702 37.2602 45.9346 37.1127 45.9957L38.2607 48.7673C38.4541 48.6872 38.6444 48.6028 38.8316 48.5141L37.5476 45.8028ZM39.5754 46.5844L31.9322 28.132L29.1605 29.28L36.8038 47.7325L39.5754 46.5844Z" fill="#4B6274" mask="url(#path-11-inside-4_2727_800)"/>
<mask id="path-13-inside-5_2727_800" fill="white">
<path fill-rule="evenodd" clip-rule="evenodd" d="M31.294 30.5464C31.2326 30.3747 31.1667 30.2035 31.0961 30.0331C28.8875 24.701 22.9607 22.0919 17.8583 24.2054C12.7558 26.3189 10.4099 32.3547 12.6185 37.6868C12.6891 37.8572 12.7635 38.0249 12.8416 38.1897L31.294 30.5464Z"/>
</mask>
<path fill-rule="evenodd" clip-rule="evenodd" d="M31.294 30.5464C31.2326 30.3747 31.1667 30.2035 31.0961 30.0331C28.8875 24.701 22.9607 22.0919 17.8583 24.2054C12.7558 26.3189 10.4099 32.3547 12.6185 37.6868C12.6891 37.8572 12.7635 38.0249 12.8416 38.1897L31.294 30.5464Z" fill="url(#paint8_linear_2727_800)"/>
<path d="M31.294 30.5464L31.868 31.9322L33.1868 31.386L32.7066 30.0418L31.294 30.5464ZM12.8416 38.1897L11.4859 38.8317L12.0968 40.1217L13.4156 39.5755L12.8416 38.1897ZM29.7103 30.6071C29.7714 30.7546 29.8284 30.9027 29.8814 31.0511L32.7066 30.0418C32.6369 29.8467 32.562 29.6524 32.4819 29.4591L29.7103 30.6071ZM18.4323 25.5912C22.7125 23.8183 27.7946 25.9823 29.7103 30.6071L32.4819 29.4591C29.9804 23.4198 23.2089 20.3655 17.2842 22.8196L18.4323 25.5912ZM14.0043 37.1127C12.0887 32.4879 14.1521 27.3641 18.4323 25.5912L17.2842 22.8196C11.3596 25.2736 8.73112 32.2215 11.2327 38.2608L14.0043 37.1127ZM14.1972 37.5477C14.1298 37.4053 14.0654 37.2603 14.0043 37.1127L11.2327 38.2608C11.3128 38.4541 11.3972 38.6445 11.4859 38.8317L14.1972 37.5477ZM13.4156 39.5755L31.868 31.9322L30.72 29.1606L12.2675 36.8039L13.4156 39.5755Z" fill="#4B6274" mask="url(#path-13-inside-5_2727_800)"/>
<circle cx="30" cy="30" r="6.25" fill="url(#paint9_linear_2727_800)" stroke="#4B6274" stroke-width="1.5"/>
<circle cx="30" cy="30" r="3" fill="url(#paint10_linear_2727_800)" stroke="#4B6274" stroke-width="1.5"/>
<defs>
<linearGradient id="paint0_linear_2727_800" x1="7" y1="4" x2="7" y2="10" gradientUnits="userSpaceOnUse">
<stop stop-color="#3F76FF"/>
<stop offset="0.4" stop-color="#3C96E9"/>
</linearGradient>
<linearGradient id="paint1_linear_2727_800" x1="53" y1="4" x2="53" y2="10" gradientUnits="userSpaceOnUse">
<stop stop-color="#3F76FF"/>
<stop offset="0.4" stop-color="#3C96E9"/>
</linearGradient>
<linearGradient id="paint2_linear_2727_800" x1="53" y1="50" x2="53" y2="56" gradientUnits="userSpaceOnUse">
<stop stop-color="#3F76FF"/>
<stop offset="0.4" stop-color="#3C96E9"/>
</linearGradient>
<linearGradient id="paint3_linear_2727_800" x1="7" y1="50" x2="7" y2="56" gradientUnits="userSpaceOnUse">
<stop stop-color="#3F76FF"/>
<stop offset="0.4" stop-color="#3C96E9"/>
</linearGradient>
<linearGradient id="paint4_linear_2727_800" x1="30" y1="3" x2="30" y2="57" gradientUnits="userSpaceOnUse">
<stop stop-color="#3F76FF"/>
<stop offset="0.4" stop-color="#3C96E9"/>
</linearGradient>
<linearGradient id="paint5_linear_2727_800" x1="26.8865" y1="10.7242" x2="34.5401" y2="29.2018" gradientUnits="userSpaceOnUse">
<stop stop-color="#3F76FF"/>
<stop offset="0.4" stop-color="#3C96E9"/>
</linearGradient>
<linearGradient id="paint6_linear_2727_800" x1="49.2758" y1="26.8865" x2="30.7982" y2="34.5402" gradientUnits="userSpaceOnUse">
<stop stop-color="#3F76FF"/>
<stop offset="0.4" stop-color="#3C96E9"/>
</linearGradient>
<linearGradient id="paint7_linear_2727_800" x1="33.1135" y1="49.2758" x2="25.4598" y2="30.7982" gradientUnits="userSpaceOnUse">
<stop stop-color="#3F76FF"/>
<stop offset="0.4" stop-color="#3C96E9"/>
</linearGradient>
<linearGradient id="paint8_linear_2727_800" x1="10.7242" y1="33.1135" x2="29.2018" y2="25.4599" gradientUnits="userSpaceOnUse">
<stop stop-color="#3F76FF"/>
<stop offset="0.4" stop-color="#3C96E9"/>
</linearGradient>
<linearGradient id="paint9_linear_2727_800" x1="30" y1="23" x2="30" y2="37" gradientUnits="userSpaceOnUse">
<stop stop-color="#3F76FF"/>
<stop offset="0.4" stop-color="#3C96E9"/>
</linearGradient>
<linearGradient id="paint10_linear_2727_800" x1="30" y1="27" x2="30" y2="33" gradientUnits="userSpaceOnUse">
<stop stop-color="#3F76FF"/>
<stop offset="0.4" stop-color="#3C96E9"/>
</linearGradient>
</defs>
</svg>
